<svg xmlns="http://www.w3.org/2000/svg" xmlns:xlink="http://www.w3.org/1999/xlink" version="1.1" style="" xml:space="preserve" width="35" height="29"><rect id="backgroundrect" width="100%" height="100%" x="0" y="0" fill="none" stroke="none"/>
















<g class="currentLayer" style=""><title>Layer 1</title><g id="svg_1" class="">
	<g id="c55_speedometer">
		<path d="M28.955,10.215c-3.066-2.629-7.047-4.229-11.408-4.229C7.856,5.986,0,13.842,0,23.536c0,0.26,0.026,2.686,0.037,2.945    v2.628h34.988v-2.437l0.033-0.191c0.011-0.26,0.038-2.686,0.038-2.945C35.097,14.934,28.955,10.215,28.955,10.215z M4.269,26.482    c-0.014-0.16,0.006-2.49-0.005-2.65h3.6V22.67H4.517c0-0.014-0.253,0.002-0.253,0.002c0.142-3.014,1.29-6.02,3.458-8.391    l0.09-0.098l0.162,0.141l2.395,2.397l0.751-0.754l-2.544-2.542c2.304-2.105,5.225-3.313,8.344-3.453h0.18    c0,0,0.075-0.004,0.07,0.045v3.549h0.958V9.971c0.474,0.02,0.946,0.076,1.412,0.148c2.678,0.354,5.167,1.51,7.181,3.351    l-2.539,2.54l0.705,0.71l2.439-2.44l0.134-0.107l0.116,0.152c2.108,2.305,3.314,5.225,3.457,8.344h-3.596v1.162l3.612-0.004    c0,0,0.003,2.5-0.009,2.646L4.269,26.482z" id="svg_2"/>
	</g>
	<g id="Capa_1_13_">
	</g>
</g><g id="svg_3" class="">
</g><g id="svg_4" class="">
</g><g id="svg_5" class="">
</g><g id="svg_6" class="">
</g><g id="svg_7" class="">
</g><g id="svg_8" class="">
</g><g id="svg_9" class="">
</g><g id="svg_10" class="">
</g><g id="svg_11" class="">
</g><g id="svg_12" class="">
</g><g id="svg_13" class="">
</g><g id="svg_14" class="">
</g><g id="svg_15" class="">
</g><g id="svg_16" class="">
</g><g id="svg_17" class="">
</g><path fill="#ffc800" stroke="#ffc800" stroke-width="2" stroke-linejoin="round" stroke-dashoffset="" fill-rule="nonzero" marker-start="" marker-mid="" marker-end="" id="svg_19" d="M20.274850391094255,20.939424168238624 C19.836738468884867,20.171655298250933 18.154385173148924,19.790482229169708 14.838236818536537,19.707654706189018 L12.595845461364302,19.65164684490844 L12.595845461364302,18.979676529145802 L12.595845461364302,18.307712634016532 L14.28839168163703,18.307712634016532 C16.283701857595574,18.307712634016532 17.710421350458773,18.16975315932665 18.87454065317588,17.86423880703562 C19.56151497548404,17.683951137483476 19.789801948859107,17.568984626968387 20.100327098651352,17.24693714359092 L20.48191514340916,16.851182478058295 L21.57641450404249,17.94941729563655 L22.670913526747857,19.047658195920253 L21.56416089410227,20.15349909861853 L20.457405220104004,21.259346084022162 L20.27485005316622,20.939424168238624 L20.274850391094255,20.939424168238624 z" style="color: rgb(0, 0, 0);" class="selected" fill-opacity="1" stroke-opacity="1" transform="rotate(-89.11016082763672 17.633378982543945,19.05526351928711) "/></g></svg>