<svg xmlns="http://www.w3.org/2000/svg" xmlns:xlink="http://www.w3.org/1999/xlink" version="1.1" style="" xml:space="preserve" width="35" height="29"><rect id="backgroundrect" width="100%" height="100%" x="0" y="0" fill="none" stroke="none"/>
















<g class="currentLayer" style=""><title>Layer 1</title><g id="svg_1" class="">
	<g id="c55_speedometer">
		<path d="M28.955,10.215c-3.066-2.629-7.047-4.229-11.408-4.229C7.856,5.986,0,13.842,0,23.536c0,0.26,0.026,2.686,0.037,2.945    v2.628h34.988v-2.437l0.033-0.191c0.011-0.26,0.038-2.686,0.038-2.945C35.097,14.934,28.955,10.215,28.955,10.215z M4.269,26.482    c-0.014-0.16,0.006-2.49-0.005-2.65h3.6V22.67H4.517c0-0.014-0.253,0.002-0.253,0.002c0.142-3.014,1.29-6.02,3.458-8.391    l0.09-0.098l0.162,0.141l2.395,2.397l0.751-0.754l-2.544-2.542c2.304-2.105,5.225-3.313,8.344-3.453h0.18    c0,0,0.075-0.004,0.07,0.045v3.549h0.958V9.971c0.474,0.02,0.946,0.076,1.412,0.148c2.678,0.354,5.167,1.51,7.181,3.351    l-2.539,2.54l0.705,0.71l2.439-2.44l0.134-0.107l0.116,0.152c2.108,2.305,3.314,5.225,3.457,8.344h-3.596v1.162l3.612-0.004    c0,0,0.003,2.5-0.009,2.646L4.269,26.482z" id="svg_2"/>
	</g>
	<g id="Capa_1_13_">
	</g>
</g><g id="svg_3" class="">
</g><g id="svg_4" class="">
</g><g id="svg_5" class="">
</g><g id="svg_6" class="">
</g><g id="svg_7" class="">
</g><g id="svg_8" class="">
</g><g id="svg_9" class="">
</g><g id="svg_10" class="">
</g><g id="svg_11" class="">
</g><g id="svg_12" class="">
</g><g id="svg_13" class="">
</g><g id="svg_14" class="">
</g><g id="svg_15" class="">
</g><g id="svg_16" class="">
</g><g id="svg_17" class="">
</g><path fill="#ff8000" stroke="#ff8000" stroke-width="2" stroke-linejoin="round" stroke-dashoffset="" fill-rule="nonzero" marker-start="" marker-mid="" marker-end="" id="svg_19" d="M23.213625930492448,22.00064862884043 C22.77551400828306,21.23287975885274 21.093160712547117,20.851706689771515 17.77701235793473,20.768879166790825 L15.534621000762495,20.712871305510248 L15.534621000762495,20.04090098974761 L15.534621000762495,19.36893709461834 L17.227167221035224,19.36893709461834 C19.222477396993767,19.36893709461834 20.649196889856967,19.230977619928456 21.813316192574074,18.925463267637426 C22.500290514882234,18.745175598085282 22.7285774882573,18.630209087570194 23.039102638049545,18.308161604192726 L23.420690682807354,17.9124069386601 L24.515190043440683,19.010641756238357 L25.60968906614605,20.10888265652206 L24.502936433500462,21.214723559220335 L23.396180759502197,22.32057054462397 L23.213625592564412,22.00064862884043 L23.213625930492448,22.00064862884043 z" style="color: rgb(0, 0, 0);" class="selected" fill-opacity="1" stroke-opacity="1" transform="rotate(-44.466819763183594 20.572154998779297,20.116489410400394) "/></g></svg>