<?xml version="1.0" standalone="no"?>
<!DOCTYPE svg PUBLIC "-//W3C//DTD SVG 20010904//EN"
 "http://www.w3.org/TR/2001/REC-SVG-20010904/DTD/svg10.dtd">
<svg version="1.0" xmlns="http://www.w3.org/2000/svg"
 width="852.000000pt" height="720.000000pt" viewBox="0 0 852.000000 720.000000"
 preserveAspectRatio="xMidYMid meet">
<metadata>
Created by potrace 1.15, written by Peter Selinger 2001-2017
</metadata>
<g transform="translate(0.000000,720.000000) scale(0.100000,-0.100000)"
fill="#000000" stroke="none">
<path d="M4049 7160 c-41 -21 -80 -44 -86 -52 -5 -7 -23 -49 -38 -93 -16 -44
-29 -81 -30 -83 -2 -2 -178 59 -270 94 -11 4 -17 4 -13 -1 4 -4 74 -32 155
-61 81 -29 143 -53 137 -53 -10 -1 -210 68 -278 95 -18 7 -19 4 -12 -37 4 -24
12 -49 19 -55 7 -6 62 -28 122 -49 61 -21 113 -41 118 -45 4 -3 -5 -17 -20
-31 -20 -18 -24 -19 -13 -4 15 20 14 20 -8 1 -23 -20 -31 -42 -9 -30 7 4 9 3
4 -2 -5 -5 -14 -9 -19 -9 -6 0 -13 -6 -16 -14 -3 -9 0 -11 9 -5 11 6 11 5 0
-10 -23 -28 -44 -35 -133 -45 -84 -10 -88 -9 -209 29 -68 22 -127 36 -132 31
-4 -4 44 -56 107 -115 l115 -107 43 10 43 10 -45 -5 c-44 -4 -46 -4 -105 58
l-60 63 61 -58 60 -58 118 21 c132 24 171 21 49 -3 -51 -11 -60 -14 -28 -11
28 3 60 8 73 11 15 3 22 1 22 -9 0 -69 66 -178 107 -178 11 1 6 6 -14 15 -18
8 -33 16 -33 19 0 3 11 0 25 -6 32 -15 37 -9 43 52 6 63 17 64 25 3 4 -27 9
-59 12 -73 5 -22 4 -22 -4 -5 -19 40 -12 -12 8 -58 11 -25 17 -48 14 -51 -4
-3 1 -6 10 -6 9 0 19 -4 22 -10 3 -5 -24 2 -60 15 l-66 25 -115 -36 c-63 -20
-118 -33 -121 -30 -4 3 0 6 8 6 11 0 14 17 16 73 l1 72 -7 -63 c-11 -86 -24
-93 -15 -8 l7 69 -49 -8 c-27 -4 -49 -8 -50 -8 0 -1 -5 -13 -12 -27 l-12 -25
5 25 c11 49 -15 -7 -46 -97 -32 -95 -34 -105 -18 -83 10 13 10 13 6 0 -20 -69
-50 -151 -53 -147 -2 2 5 30 16 62 11 32 18 60 16 62 -2 2 -16 -32 -31 -76
-15 -45 -30 -83 -34 -86 -5 -2 -59 18 -121 45 -62 28 -115 49 -117 47 -2 -2
51 -28 117 -57 67 -29 119 -54 117 -56 -2 -2 -63 23 -136 55 -73 32 -129 60
-123 62 10 4 33 184 31 237 -2 27 -11 -37 -24 -161 -4 -38 -9 -66 -12 -64 -6
7 38 420 47 430 3 4 3 -19 -1 -50 -4 -32 -7 -74 -7 -93 0 -19 6 8 13 60 7 52
16 104 21 114 6 15 4 17 -6 11 -9 -5 -11 -4 -6 4 4 6 11 9 16 6 5 -3 14 3 19
14 14 26 14 34 -1 25 -7 -4 -8 -3 -4 5 4 6 11 9 16 6 5 -3 14 3 19 14 14 26
14 34 -1 25 -7 -4 -8 -3 -4 5 4 6 11 9 16 6 5 -3 14 3 19 14 16 29 13 38 -4
15 -14 -19 -14 -18 -9 2 4 16 0 23 -18 27 -40 11 -55 8 -90 -19 l-33 -26 34
32 c29 28 39 31 70 26 25 -4 31 -2 21 4 -70 45 -175 -84 -204 -249 -10 -62
-23 -79 -43 -57 -5 5 -3 6 5 2 15 -9 15 -1 1 25 -5 11 -15 16 -21 13 -6 -4 -8
-3 -5 4 10 14 -2 42 -18 42 -16 0 -105 -39 -105 -46 0 -16 32 -64 40 -59 5 3
14 -5 20 -17 11 -22 10 -22 -4 -4 -20 25 -20 13 -1 -25 9 -16 20 -27 25 -24 5
3 12 1 15 -5 4 -6 3 -10 -2 -9 -22 4 -25 -3 -8 -21 10 -11 22 -17 28 -13 6 3
7 1 3 -5 -4 -7 -3 -12 2 -12 6 0 13 -8 16 -17 4 -10 -50 38 -119 107 -116 116
-149 152 -108 119 15 -12 16 -12 10 4 -4 10 -8 44 -9 75 l-1 57 -7 -60 -7 -60
-1 58 -2 57 -71 0 c-69 0 -71 -1 -66 -22 6 -22 6 -22 -8 -4 -8 11 -15 17 -15
14 0 -16 99 -223 107 -223 17 0 103 -78 96 -88 -4 -6 0 -8 8 -5 9 3 32 -10 55
-31 22 -20 32 -30 22 -22 -23 18 -34 8 -14 -12 13 -13 8 -18 -47 -42 -170 -76
-247 -117 -241 -127 5 -7 2 -8 -6 -3 -10 6 -10 11 3 20 9 7 14 14 12 17 -3 3
2 11 12 19 11 9 14 10 9 2 -8 -14 3 -17 19 -5 17 12 17 35 0 29 -8 -4 -15 -4
-15 -1 0 2 54 31 121 64 l120 59 -36 15 c-20 9 -54 21 -76 27 -21 7 -47 22
-56 33 -18 21 -18 21 2 4 28 -23 71 -33 80 -18 5 9 1 10 -13 6 -13 -5 -29 2
-49 18 -17 14 -32 23 -35 21 -2 -3 -18 10 -34 27 -16 18 -21 26 -11 19 28 -22
20 3 -10 30 -20 18 -24 19 -13 4 15 -20 14 -20 -8 -1 -23 20 -30 32 -12 21 17
-10 11 12 -7 26 -15 12 -16 12 -8 -1 8 -13 7 -13 -8 -1 -18 15 -23 26 -7 16
15 -9 12 0 -11 39 -12 20 -25 34 -29 31 -5 -3 -12 0 -16 6 -5 8 -3 9 6 4 9 -6
12 -4 7 6 -3 8 -20 47 -37 87 -34 80 -32 103 7 72 14 -11 29 -20 33 -20 4 0
29 19 56 42 27 23 40 32 29 19 -11 -13 -38 -37 -59 -52 -21 -16 -34 -29 -28
-29 14 0 132 109 132 122 0 6 -8 4 -17 -3 -15 -11 -14 -10 1 9 21 24 31 29 20
10 -4 -7 4 -3 17 9 46 42 285 90 508 102 151 8 155 9 178 35 13 15 23 32 23
38 0 7 -7 3 -15 -8 -11 -13 -13 -14 -9 -3 7 22 -36 28 -261 35 -154 5 -196 3
-293 -15 l-113 -20 -92 -82 c-51 -46 -107 -96 -124 -113 -18 -16 -33 -27 -33
-24 0 3 57 56 126 119 94 83 136 114 163 120 l36 7 -33 1 c-28 1 -50 -15 -167
-120 -88 -77 -135 -126 -133 -137 2 -10 -3 -16 -10 -14 -7 1 -46 -7 -85 -18
-40 -12 -80 -23 -89 -26 -9 -3 -23 -21 -30 -39 -7 -20 -15 -30 -19 -24 -3 6
-20 -29 -37 -77 -16 -49 -53 -152 -80 -230 l-50 -140 44 -135 c39 -121 48
-139 86 -174 30 -28 36 -31 18 -10 -23 27 -21 27 13 -4 36 -34 52 -56 22 -31
-8 7 -15 8 -15 4 0 -13 180 -189 207 -203 12 -6 28 -11 35 -11 7 0 -5 9 -27
19 -22 10 -71 52 -110 92 l-70 74 81 -78 c52 -49 93 -79 112 -83 24 -5 32 -13
35 -33 2 -14 3 -10 2 10 -2 20 3 63 10 95 l12 59 -5 -96 c-5 -91 -4 -97 16
-103 11 -4 26 -14 34 -23 11 -14 11 -16 -1 -8 -11 7 -13 2 -8 -25 4 -18 7 -46
7 -62 0 -20 4 -27 13 -22 7 4 9 3 4 -2 -5 -5 -14 -9 -19 -9 -6 0 -13 -6 -16
-14 -3 -9 0 -11 8 -6 9 5 11 4 6 -4 -4 -6 -11 -9 -16 -6 -5 3 -14 -3 -19 -14
-14 -26 -14 -34 2 -25 7 4 9 3 4 -2 -5 -5 -14 -9 -20 -9 -5 0 -12 -6 -15 -14
-3 -9 0 -11 8 -6 9 5 11 4 6 -4 -4 -6 -11 -9 -16 -6 -12 7 -33 -32 -25 -45 4
-6 1 -9 -6 -8 -6 2 -14 -3 -17 -11 -3 -9 0 -11 9 -6 8 5 11 4 6 -1 -5 -5 -14
-9 -19 -9 -6 0 -13 -6 -16 -14 -3 -9 0 -11 9 -6 8 5 11 4 6 -1 -5 -5 -14 -9
-20 -9 -5 0 -12 -6 -15 -14 -3 -9 0 -11 9 -6 8 5 11 4 6 -1 -5 -5 -14 -9 -19
-9 -6 0 -13 -6 -16 -14 -3 -9 0 -11 9 -6 8 5 11 4 6 -1 -5 -5 -12 -9 -16 -9
-5 0 -20 -15 -35 -32 -15 -18 -24 -33 -20 -33 5 0 19 12 32 28 l24 27 -22 -32
c-12 -18 -25 -33 -29 -33 -4 0 -58 45 -119 100 -62 55 -125 103 -140 107 -15
3 -88 21 -162 39 -75 17 -134 36 -133 42 2 7 -14 6 -45 -3 -78 -24 -188 -63
-176 -64 5 -1 50 13 100 29 49 17 95 29 102 28 7 -2 -45 -21 -115 -42 -102
-31 -136 -47 -168 -75 l-40 -36 35 39 c19 21 44 42 55 46 13 6 15 9 5 9 -8 1
-81 -60 -162 -134 l-146 -134 -47 -147 c-25 -80 -44 -148 -42 -151 3 -2 8 9
12 26 4 17 10 33 15 36 10 6 -39 -157 -51 -170 -6 -5 -3 10 6 34 8 24 15 49
14 55 0 6 -11 -20 -25 -59 -13 -38 -22 -74 -20 -80 2 -5 5 -2 5 7 1 9 5 19 10
22 5 4 4 -10 -2 -29 -6 -21 -13 -31 -17 -24 -4 6 -17 -21 -29 -60 -17 -57 -21
-91 -18 -164 l3 -92 2 102 c3 172 17 122 19 -71 1 -99 4 -219 7 -266 3 -52 1
-73 -4 -55 -4 17 -8 22 -9 12 -1 -23 71 -299 76 -293 3 2 -9 57 -27 121 -17
65 -29 119 -27 121 4 5 98 -337 96 -352 -1 -5 -9 16 -20 46 -25 74 -15 19 19
-105 15 -55 33 -100 39 -100 6 0 15 -4 20 -9 5 -5 2 -6 -6 -1 -9 5 -12 3 -9
-6 3 -8 10 -14 16 -14 5 0 14 -4 19 -9 5 -5 2 -6 -6 -1 -9 5 -12 3 -9 -6 3 -8
10 -14 16 -14 5 0 14 -4 19 -9 5 -5 2 -6 -6 -1 -9 5 -12 3 -9 -6 3 -8 10 -13
16 -12 5 1 16 -5 24 -15 12 -15 11 -16 -4 -3 -10 7 -18 9 -18 3 0 -11 32 -40
36 -32 1 3 6 1 11 -4 5 -5 2 -6 -6 -1 -9 5 -12 3 -9 -6 3 -8 10 -14 16 -14 5
0 14 -4 19 -9 5 -5 3 -6 -4 -2 -19 11 -16 -9 4 -25 15 -12 16 -12 8 1 -8 13
-7 13 8 1 19 -15 23 -26 6 -15 -7 4 -10 1 -7 -7 3 -8 10 -14 16 -14 5 0 14 -4
19 -9 5 -5 2 -6 -6 -1 -9 5 -12 3 -9 -6 3 -8 10 -14 16 -14 5 0 14 -4 19 -9 5
-5 3 -6 -5 -2 -18 11 -15 -9 5 -25 15 -12 16 -12 8 1 -8 13 -7 13 8 1 19 -15
23 -26 6 -15 -7 4 -10 1 -7 -7 3 -8 10 -14 16 -14 5 0 14 -4 19 -9 5 -5 2 -6
-6 -1 -9 5 -12 3 -9 -6 3 -8 10 -14 16 -14 5 0 14 -4 19 -9 5 -5 2 -6 -6 -1
-9 5 -12 3 -9 -6 3 -8 10 -13 16 -12 5 1 16 -5 24 -15 12 -15 11 -16 -4 -3
-10 7 -18 9 -18 4 0 -20 84 -86 233 -181 151 -97 161 -102 245 -117 48 -8 96
-14 107 -14 11 1 -28 10 -87 20 l-107 19 -158 101 c-87 56 -169 113 -183 128
l-25 25 25 -20 c38 -32 311 -205 345 -219 17 -7 86 -21 155 -31 l125 -17 180
82 c99 46 189 90 200 99 l20 16 -20 -21 c-27 -29 -362 -181 -411 -186 l-39 -4
38 -1 c28 -2 83 19 216 80 167 76 231 114 231 139 0 6 -5 7 -12 3 -7 -4 -8 -3
-4 5 4 6 11 9 16 6 5 -3 14 3 19 14 14 26 14 34 -1 25 -8 -4 -10 -3 -5 2 5 5
14 9 20 9 5 0 12 6 15 14 3 9 0 11 -9 6 -8 -5 -11 -4 -6 1 5 5 14 9 20 9 5 0
12 6 15 14 3 8 0 11 -7 7 -17 -11 -13 0 6 15 15 12 16 12 8 -1 -5 -8 14 9 42
38 29 28 57 52 64 52 10 0 137 -74 237 -138 12 -8 22 -12 22 -9 0 8 -245 157
-257 157 -6 0 -32 -18 -59 -41 l-49 -41 48 46 c27 25 54 46 60 46 7 0 105 -58
219 -129 l206 -129 90 26 90 25 -1 86 c0 65 4 93 17 116 9 17 14 21 10 10 -17
-51 -23 -109 -15 -162 8 -57 8 -57 8 27 -1 68 5 99 26 158 15 40 27 83 26 95
-1 12 -8 -4 -16 -36 -9 -32 -17 -56 -19 -55 -5 5 37 221 47 243 5 11 8 13 5 4
-2 -9 -7 -42 -10 -75 l-5 -59 14 70 14 70 -65 135 c-36 74 -69 134 -74 133 -5
-2 -6 5 -3 14 5 12 3 14 -8 8 -8 -4 11 18 41 49 66 68 82 75 20 8 -25 -26 32
31 127 127 95 97 172 180 173 185 0 6 -15 -3 -32 -19 -18 -15 37 41 122 124
141 139 232 212 246 198 9 -9 -6 -28 -17 -22 -5 4 -17 1 -26 -4 -15 -8 -15
-11 -3 -12 8 -1 20 -1 25 0 6 1 -33 -41 -85 -93 -52 -53 -97 -96 -99 -96 -2 0
4 9 14 20 10 11 14 20 8 20 -15 0 -44 -36 -36 -44 5 -4 1 -6 -7 -4 -10 2 -33
-51 -87 -202 -72 -203 -82 -239 -62 -210 8 11 9 9 4 -10 -4 -14 -12 -29 -17
-35 -6 -6 -7 -3 -2 10 4 11 5 18 1 15 -6 -6 -97 -261 -96 -270 0 -3 9 13 20
35 10 22 16 29 12 15 -10 -34 -7 -63 28 -378 16 -151 28 -281 26 -290 -2 -10
-9 43 -17 116 -7 72 -15 130 -18 127 -3 -2 1 -61 8 -130 12 -120 17 -138 95
-343 45 -119 87 -217 92 -217 6 0 15 -4 20 -9 5 -5 3 -6 -4 -2 -19 11 -16 -9
4 -25 15 -12 16 -12 8 1 -8 13 -7 13 8 1 18 -15 23 -26 7 -16 -17 10 -11 -12
7 -26 15 -12 16 -12 8 1 -8 13 -7 13 8 1 18 -15 23 -26 7 -16 -17 10 -11 -12
7 -26 15 -12 16 -12 8 1 -8 13 -7 13 8 1 18 -15 23 -26 7 -16 -17 10 -11 -12
7 -26 15 -12 16 -12 8 1 -8 13 -7 13 8 1 18 -15 23 -26 7 -16 -19 12 -10 -12
12 -31 22 -19 23 -19 8 1 -15 20 -14 20 8 1 23 -20 30 -32 12 -21 -24 15 -7
-14 27 -46 l38 -34 -30 35 c-16 19 -2 8 33 -25 34 -33 62 -62 62 -64 0 -3 -16
10 -35 29 -19 19 -35 29 -35 23 0 -28 185 -179 292 -238 l64 -35 24 -91 c13
-50 32 -100 42 -112 11 -12 17 -16 13 -9 -9 17 0 15 16 -5 12 -14 12 -16 0 -9
-9 6 -12 4 -9 -5 3 -8 10 -14 15 -14 6 0 15 -4 20 -9 5 -5 2 -6 -6 -1 -9 5
-12 3 -9 -6 3 -8 10 -14 15 -14 6 0 15 -4 20 -9 5 -5 2 -6 -6 -1 -9 5 -12 3
-9 -6 3 -8 10 -14 15 -14 6 0 15 -4 20 -9 5 -5 2 -6 -6 -1 -9 5 -12 3 -9 -6 3
-8 10 -14 16 -14 6 0 17 -7 24 -15 11 -12 11 -12 -4 -1 -11 8 -18 9 -18 3 0
-11 19 -27 32 -27 3 0 10 -4 15 -9 5 -5 2 -6 -6 -1 -9 5 -12 3 -9 -6 3 -8 10
-14 15 -14 6 0 15 -4 20 -9 5 -5 3 -6 -4 -2 -19 11 -16 -9 4 -25 11 -10 14
-10 9 -1 -11 18 -1 15 15 -5 12 -14 12 -16 0 -9 -9 6 -12 4 -9 -5 3 -8 10 -14
15 -14 6 0 15 -4 20 -9 5 -5 2 -6 -6 -1 -9 5 -12 3 -9 -6 3 -8 10 -14 15 -14
6 0 15 -4 20 -9 5 -5 2 -6 -6 -1 -9 5 -12 3 -9 -6 3 -8 10 -14 16 -14 6 0 17
-7 24 -15 11 -12 11 -12 -4 -1 -11 8 -18 9 -18 3 0 -11 19 -27 32 -27 3 0 10
-4 15 -9 5 -5 2 -6 -6 -1 -9 5 -12 3 -9 -6 3 -8 10 -14 16 -14 5 0 14 -4 19
-9 5 -5 3 -6 -4 -2 -7 4 -13 3 -13 -3 0 -14 39 -42 220 -157 l154 -98 138 -22
139 -23 187 86 c103 47 195 92 205 101 19 17 24 37 5 26 -7 -4 -8 -3 -4 5 4 6
11 9 16 6 12 -7 33 32 25 45 -4 6 -1 9 6 8 6 -2 14 3 17 11 3 9 0 11 -9 6 -8
-5 -11 -4 -6 1 5 5 14 9 19 9 6 0 13 6 16 14 3 9 0 11 -9 6 -8 -5 -11 -4 -6 1
5 5 14 9 19 9 6 0 13 6 16 14 3 9 0 11 -9 5 -12 -7 -12 -5 0 9 16 20 25 23 15
5 -4 -7 5 -2 19 11 33 30 36 52 5 25 l-23 -19 19 23 c11 12 34 32 52 43 l33
20 211 -131 c131 -82 217 -129 228 -126 9 2 50 14 90 26 l74 21 -3 57 c-4 96
4 112 11 22 l6 -85 2 87 c1 60 8 103 22 138 11 28 29 100 40 160 l19 111 -21
44 c-12 24 -25 42 -30 39 -4 -3 -5 1 -2 9 3 8 -15 55 -41 103 -25 49 -43 78
-39 64 7 -28 2 -26 -15 8 -7 12 -8 21 -3 20 10 -3 423 427 417 434 -3 2 37 44
87 94 51 49 86 81 79 71 -16 -21 1 -23 19 -2 7 8 9 15 5 15 -15 0 19 32 49 46
24 12 27 12 14 1 -10 -8 -15 -17 -11 -20 3 -4 13 -1 22 6 14 11 14 10 2 -6 -8
-9 -16 -15 -19 -12 -7 7 -42 -25 -42 -38 0 -6 10 -2 23 8 12 10 -21 -23 -73
-73 -52 -50 -99 -90 -104 -89 -11 2 -36 -64 -159 -418 l-94 -270 30 -274 c17
-151 33 -269 35 -263 3 11 -42 462 -53 522 -4 22 -3 22 5 5 5 -11 23 -153 40
-315 17 -162 33 -306 36 -320 3 -14 2 -21 -2 -17 -5 5 -11 32 -15 60 -6 49 -6
50 -8 12 -1 -47 156 -477 185 -504 9 -9 14 -10 10 -3 -10 18 -1 15 15 -5 10
-11 10 -14 2 -9 -19 11 -16 -9 4 -25 11 -10 14 -10 9 -1 -11 18 -1 15 15 -5
10 -11 10 -14 2 -9 -19 11 -16 -9 4 -25 11 -10 14 -10 9 -1 -11 18 -1 15 15
-5 10 -11 10 -14 2 -9 -19 11 -16 -9 4 -25 11 -10 14 -10 9 -1 -11 18 -1 15
15 -5 10 -11 10 -14 2 -9 -19 11 -16 -9 4 -25 15 -12 16 -12 8 1 -5 9 0 8 13
-4 25 -21 31 -36 7 -16 -29 24 -14 -2 32 -55 25 -30 49 -52 53 -50 4 2 20 -9
36 -26 16 -17 61 -56 99 -87 91 -73 90 -72 82 -72 -8 0 -106 78 -168 134 -25
22 -15 11 23 -26 79 -77 188 -152 273 -187 55 -22 75 -24 246 -27 l186 -3 114
66 c63 36 119 70 124 76 10 10 -83 -40 -145 -78 -39 -25 -113 -61 -90 -45 61
44 278 164 264 147 -16 -19 -15 -18 9 2 27 25 37 48 15 35 -8 -4 -10 -3 -5 2
5 5 14 9 19 9 6 0 13 6 16 14 3 9 0 11 -8 6 -9 -5 -11 -4 -6 4 4 6 11 9 16 6
4 -3 18 10 29 29 24 38 26 50 9 40 -8 -4 -10 -3 -5 2 5 5 14 9 19 9 6 0 13 6
16 14 3 9 0 11 -8 6 -9 -5 -11 -4 -6 4 4 6 11 9 16 6 4 -3 18 10 29 29 24 38
26 50 9 40 -8 -4 -10 -3 -5 2 5 5 14 9 19 9 6 0 13 6 16 14 3 9 0 11 -8 6 -9
-5 -11 -4 -6 4 4 6 11 9 16 6 5 -3 14 3 19 14 14 26 14 34 -1 25 -7 -4 -8 -3
-4 5 4 6 11 9 16 6 14 -9 32 33 27 63 -4 25 -4 25 -6 -5 0 -17 -5 -34 -9 -37
-5 -3 -5 16 -1 42 4 26 9 56 10 67 1 13 4 10 8 -10 5 -23 10 -5 25 83 10 62
17 115 14 117 -3 3 -10 -33 -18 -81 -7 -47 -14 -83 -17 -81 -2 3 4 56 13 118
14 85 20 106 24 84 4 -16 6 67 6 185 0 118 -3 197 -6 175 -3 -29 -13 22 -33
175 -25 200 -34 298 -17 205 l7 -40 2 38 c1 30 -28 96 -144 326 -79 159 -150
293 -156 297 -8 5 -9 3 -4 -6 6 -9 4 -11 -4 -6 -7 5 -10 11 -6 14 7 7 -105
122 -119 122 -6 0 12 -24 39 -52 27 -29 -9 4 -80 74 l-130 128 -195 75 c-107
42 -202 83 -210 92 -8 9 -9 13 -2 9 17 -10 17 -9 -32 95 -47 98 -91 254 -122
426 -10 56 -22 99 -26 97 -15 -9 -8 3 9 17 14 12 16 12 9 0 -6 -9 -4 -12 5 -9
8 3 15 10 15 16 1 7 2 15 3 19 0 4 16 -8 35 -26 l34 -33 68 35 c113 57 193 82
207 67 9 -10 9 -11 -1 -6 -12 7 -117 -22 -109 -30 2 -2 23 3 47 11 23 8 47 12
54 8 6 -4 14 -8 18 -8 3 0 10 -4 15 -9 5 -5 3 -6 -4 -2 -16 9 -16 1 -2 -25 5
-11 14 -17 19 -14 5 3 12 0 16 -6 4 -8 3 -9 -4 -5 -17 10 -15 1 8 -45 12 -22
24 -38 29 -35 4 3 7 -5 7 -17 -1 -13 4 -21 12 -19 8 1 11 -2 7 -8 -3 -6 16
-58 44 -116 l51 -106 -28 6 c-24 5 -23 3 6 -10 18 -8 37 -12 41 -9 5 3 11 -2
14 -9 5 -13 0 -13 -35 0 -22 8 -42 14 -44 14 -2 0 -5 -24 -6 -52 l-1 -53 -7
55 -7 55 -1 -57 c-2 -46 1 -58 13 -58 8 0 76 -27 152 -60 75 -33 144 -60 152
-60 9 0 60 15 113 32 l98 33 1 35 1 35 8 -30 c7 -27 8 -28 8 -5 1 40 -36 209
-38 175 -2 -21 -6 -10 -15 35 -19 95 -26 149 -16 125 5 -11 12 -44 16 -73 4
-29 9 -51 12 -48 3 3 0 36 -6 73 -12 66 -14 70 -89 146 -42 42 -81 77 -86 77
-6 0 19 -30 54 -67 36 -38 12 -16 -53 47 -111 109 -130 129 -107 115 15 -10
13 1 -35 152 -53 165 -99 274 -116 271 -6 -2 -14 4 -16 12 -4 13 -3 13 6 0 14
-20 15 4 1 30 -6 11 -22 59 -35 107 -23 79 -26 78 -11 -3 3 -16 -1 -9 -10 16
-23 68 -44 225 -42 315 1 74 2 71 9 -40 4 -66 12 -138 18 -160 l11 -40 -6 40
c-2 22 -7 92 -11 155 -6 130 -31 210 -64 210 -17 0 -19 -9 -21 -72 l-2 -73 -6
75 -6 75 -2 -75 -2 -76 -90 -44 c-49 -24 -88 -46 -86 -48 2 -2 45 18 96 43 51
25 94 45 96 43 2 -2 -43 -27 -100 -55 l-104 -52 -23 27 c-23 25 -23 26 -1 8
35 -30 25 -3 -13 34 -19 19 -35 37 -35 40 0 3 23 23 51 44 49 37 53 38 88 27
64 -21 67 -21 26 -1 -22 11 -46 20 -53 20 -13 0 -122 -78 -122 -88 0 -3 8 -15
17 -26 14 -16 11 -15 -9 3 l-27 24 66 50 67 50 49 -17 c60 -21 64 -18 97 74
13 36 28 70 34 77 6 6 57 30 114 53 56 24 101 44 99 46 -8 8 -221 -87 -233
-104 -12 -16 -13 -15 -8 3 4 15 38 33 127 70 67 27 126 50 132 50 5 0 20 29
33 65 l24 65 -32 99 c-19 59 -35 94 -40 86 -5 -8 -9 -4 -14 13 -3 14 -8 33
-11 44 -3 10 1 5 9 -12 20 -39 20 -19 1 35 -15 43 -161 208 -214 241 -14 10
-86 38 -160 65 l-133 47 -99 -49 c-55 -27 -108 -58 -119 -69 -10 -11 -30 -52
-44 -91 -27 -75 -32 -99 -16 -74 5 8 10 10 10 4 0 -21 -13 -22 -67 -3 -31 10
-58 17 -60 15 -2 -2 19 -12 47 -21 28 -9 49 -19 47 -21 -2 -2 -63 17 -136 42
-72 26 -134 44 -138 41 -3 -4 -1 -25 5 -47 13 -53 1 -42 -15 13 l-13 42 6 -40
c6 -43 19 -65 39 -65 7 0 65 -19 129 -41 96 -34 114 -44 105 -56 -7 -7 -14
-11 -17 -8 -7 7 -32 -15 -32 -27 0 -6 8 -4 18 3 14 11 13 10 -2 -9 -21 -24
-31 -29 -21 -9 4 6 -6 -2 -22 -19 -15 -18 -35 -34 -43 -37 -10 -4 -11 -6 -2
-6 7 -1 23 4 34 10 14 8 18 8 14 0 -9 -14 -66 -28 -147 -36 -58 -6 -78 -3
-183 30 -65 20 -116 39 -113 41 2 3 16 0 31 -6 15 -5 33 -10 39 -9 7 0 -5 7
-26 15 -28 10 -44 11 -58 3 -26 -13 -24 -24 10 -51 16 -13 68 -59 115 -102
l87 -79 105 18 c57 10 102 20 100 22 -2 3 -50 -3 -106 -13 l-101 -18 -47 50
-47 49 47 -44 47 -45 99 18 c54 9 109 19 122 22 14 2 20 2 14 -1 -33 -16 49
-205 89 -205 5 0 -1 9 -14 20 l-24 20 30 -15 30 -15 8 43 c5 23 12 56 17 72 8
26 9 25 6 -15 -2 -25 -7 -55 -11 -67 -5 -15 -3 -23 4 -23 6 0 11 10 12 23 0
12 8 -5 18 -38 10 -33 21 -67 25 -76 11 -27 -7 -30 -59 -10 l-47 18 -106 -34
c-58 -18 -107 -33 -109 -33 -1 0 -3 8 -4 18 -1 11 -4 9 -9 -8 -5 -15 -6 5 -3
49 l6 74 -24 -6 c-13 -4 -32 -7 -41 -7 -10 0 -27 -10 -38 -22 -19 -21 -21 -21
-14 -3 4 11 4 17 1 14 -7 -6 -137 -369 -137 -382 0 -5 5 -5 12 -1 7 4 8 3 4
-4 -5 -8 -20 -6 -54 7 -84 33 -88 32 -17 -4 39 -20 63 -34 54 -31 -32 9 -279
119 -276 123 2 2 35 -10 72 -27 37 -17 70 -29 72 -27 2 3 -26 17 -62 32 -62
27 -65 30 -66 64 l-2 36 -7 -35 c-14 -65 -10 -6 14 209 13 117 29 218 36 225
8 8 10 6 5 -9 -4 -12 1 -8 14 10 23 33 27 50 9 39 -7 -4 -8 -3 -4 5 4 6 11 9
16 6 5 -3 14 3 19 14 14 26 14 34 -1 25 -7 -4 -8 -3 -4 5 4 6 11 9 16 6 5 -3
16 8 25 24 19 37 20 51 1 26 -13 -18 -13 -17 -11 9 6 52 -68 55 -122 4 -24
-22 -32 -44 -11 -32 7 4 8 3 4 -5 -4 -6 -11 -9 -16 -6 -23 14 -77 -143 -82
-237 -2 -27 -4 -48 -5 -48 -1 0 -7 10 -14 21 -8 15 -8 19 0 15 15 -10 14 0 -4
35 -9 16 -20 27 -25 24 -5 -3 -12 0 -16 6 -4 8 -3 9 4 5 20 -12 13 10 -8 29
-17 15 -24 16 -50 5 -17 -7 -29 -15 -27 -17 3 -2 16 2 31 8 21 10 29 10 39 0
9 -10 9 -11 -5 -6 -9 4 -30 -1 -47 -9 -17 -9 -34 -16 -38 -16 -5 0 -8 -8 -8
-17 0 -10 5 -18 12 -18 6 0 15 -4 20 -9 5 -5 3 -6 -4 -2 -16 9 -16 1 -2 -25 5
-11 14 -17 19 -14 5 3 12 0 16 -6 4 -8 3 -9 -4 -5 -15 9 -15 1 -1 -27 6 -12
-24 12 -67 53 -43 41 -69 64 -59 50 l20 -25 -28 24 c-27 24 -36 38 -17 26 12
-7 12 23 0 85 -9 43 -9 42 -5 -15 3 -39 1 -55 -5 -45 -5 8 -10 34 -10 58 l0
42 -71 0 c-68 0 -70 -1 -64 -22 5 -21 5 -21 -10 2 -28 45 -8 -10 45 -123 34
-73 58 -109 77 -121 l28 -17 -24 20 c-13 12 -20 21 -17 21 14 0 184 -145 178
-152 -13 -12 -316 -148 -320 -143 -3 3 9 10 26 16 18 6 29 15 26 20 -3 5 -11
6 -17 2 -7 -4 -5 1 2 11 8 10 67 44 130 77 96 48 112 59 94 65 -13 3 -23 11
-23 16 0 5 -4 7 -9 4 -17 -11 -99 26 -127 57 -16 17 -21 25 -11 18 9 -7 17 -9
17 -3 0 12 -25 34 -32 27 -2 -3 -15 7 -29 23 l-24 27 29 -25 30 -25 -33 43
c-18 23 -35 42 -38 42 -3 0 1 -8 8 -17 11 -15 10 -14 -9 1 -23 20 -30 32 -11
20 7 -4 10 -1 7 7 -3 8 -10 14 -15 14 -6 0 -15 4 -20 9 -5 5 -2 6 6 1 9 -5 12
-3 9 6 -3 8 -10 14 -15 14 -6 0 -15 4 -20 9 -5 5 -2 6 6 1 7 -4 12 -4 9 1 -2
5 -23 48 -46 95 -44 91 -49 109 -31 109 5 0 7 5 3 11 -11 18 -26 -17 -20 -44
3 -12 -2 -4 -13 18 -10 22 -16 43 -14 48 6 10 8 10 -88 -18 -46 -13 -94 -25
-105 -25 -18 0 -27 -17 -59 -107 -21 -60 -62 -174 -91 -255 -47 -130 -52 -151
-42 -179 6 -18 13 -26 18 -20 4 7 11 -4 17 -24 6 -19 7 -33 2 -29 -5 3 -9 12
-9 21 0 9 -3 14 -6 10 -9 -9 49 -176 59 -170 6 3 7 1 3 -6 -5 -7 31 -54 89
-121 96 -108 180 -182 222 -194 12 -4 24 -15 27 -24 3 -9 4 3 2 28 -2 25 0 56
4 70 6 18 9 7 10 -42 3 -95 3 -92 25 -95 l20 -3 -20 9 c-16 8 -16 10 -4 10 9
1 23 -7 30 -16 8 -9 9 -14 4 -11 -6 4 -10 -19 -10 -62 0 -38 4 -66 9 -62 5 3
6 0 2 -7 -4 -6 -11 -9 -16 -6 -12 8 -33 -33 -24 -47 4 -6 3 -8 -4 -4 -6 3 -18
-4 -26 -16 -19 -26 -21 -42 -4 -32 7 4 8 3 4 -5 -4 -6 -11 -9 -16 -6 -4 3 -17
-11 -29 -31 -24 -41 -26 -48 -8 -38 7 4 9 3 4 -2 -5 -5 -14 -9 -19 -9 -6 0
-13 -6 -16 -14 -3 -9 0 -11 9 -6 8 5 11 4 6 -1 -5 -5 -14 -9 -19 -9 -6 0 -13
-6 -16 -14 -3 -9 0 -11 9 -6 8 5 11 4 6 -1 -5 -5 -14 -9 -19 -9 -6 0 -13 -6
-16 -14 -3 -9 0 -11 8 -6 9 6 11 4 6 -4 -5 -7 -11 -10 -14 -7 -7 7 -32 -13
-32 -26 0 -6 8 -4 18 3 14 11 13 10 -2 -9 -19 -22 -32 -30 -22 -13 3 5 -1 12
-10 15 -23 9 -26 8 -18 -6 5 -7 -40 30 -99 82 -62 55 -123 100 -144 108 -38
12 -38 12 -5 7 35 -5 51 -17 171 -124 39 -34 71 -61 71 -58 0 14 -206 187
-229 192 -23 5 -42 36 -141 236 l-115 230 -160 157 -160 157 -191 74 c-106 40
-197 71 -202 67 -6 -3 -14 -1 -18 5 -4 8 -3 9 4 5 7 -4 12 -5 12 -3 0 14 -90
189 -91 177 -1 -18 -37 79 -37 100 0 8 8 -7 19 -35 22 -57 19 -42 -21 110 -24
87 -35 95 -14 10 4 -15 3 -17 -4 -5 -12 20 -46 199 -39 206 3 3 8 -18 12 -46
4 -28 9 -49 12 -46 3 2 -1 36 -8 75 -10 59 -10 73 2 87 13 16 12 16 -7 4 -14
-9 -19 -20 -16 -36 2 -13 2 -24 -1 -24 -2 0 -7 11 -9 24 -4 19 2 30 26 47 17
12 28 19 24 15 -3 -4 11 -23 32 -42 33 -30 42 -34 59 -24 12 6 21 13 21 16 0
2 -10 0 -21 -7 -18 -9 -25 -7 -48 17 l-26 28 26 -22 27 -23 88 44 c49 25 108
50 132 58 38 11 45 10 57 -4 8 -9 10 -12 3 -7 -7 6 -21 10 -33 9 -19 0 -19 -1
2 -9 12 -5 27 -18 33 -30 6 -11 15 -18 20 -15 5 3 12 0 16 -6 4 -8 3 -9 -4 -5
-7 4 -12 5 -12 3 0 -16 138 -266 144 -260 4 4 4 0 1 -9 -4 -9 3 -35 15 -57
l21 -42 -28 6 c-15 3 -9 -2 15 -11 24 -9 41 -18 39 -20 -2 -3 -16 0 -31 6 -43
16 -46 13 -48 -42 l-1 -53 -7 55 -7 55 -1 -57 c-2 -50 1 -58 16 -58 10 0 81
-27 158 -61 l139 -61 117 39 c129 42 128 42 107 118 -6 23 -7 16 -4 -25 l4
-55 -14 65 c-7 36 -16 88 -19 115 -5 50 -5 50 9 -10 7 -33 13 -49 14 -35 0 14
-8 66 -19 115 -16 76 -18 81 -15 35 4 -46 3 -49 -4 -20 -15 60 -22 117 -11 95
9 -20 9 -20 9 0 1 22 -190 220 -202 210 -4 -3 -5 -2 -2 2 3 4 -8 20 -24 37
-23 23 -42 69 -80 186 -53 162 -113 299 -137 313 -8 4 -14 13 -14 20 0 7 4 6
10 -3 14 -22 12 2 -5 49 -27 77 -55 251 -55 341 0 100 -27 180 -62 180 -15 0
-18 -10 -20 -67 l-2 -68 -6 70 -6 70 -2 -72 -2 -73 -91 -46 -92 -46 -41 39
-41 38 35 -40 35 -40 -47 44 c-26 25 -46 46 -44 48 2 2 32 26 66 52 l63 49 39
-14 c67 -23 78 -16 108 70 15 42 29 78 31 80 2 2 53 24 113 49 88 36 110 49
113 67 2 12 8 30 13 39 8 12 9 9 5 -14 -5 -29 -5 -28 9 5 17 42 20 61 5 40 -8
-11 -8 -9 -3 10 5 14 8 37 9 52 0 14 4 24 9 21 4 -3 6 -20 3 -37 -5 -27 -5
-28 5 -9 8 17 1 49 -37 163 -26 78 -49 140 -51 137 -2 -2 12 -50 31 -107 19
-57 31 -100 26 -95 -13 15 -81 226 -70 220 29 -19 -3 22 -89 113 l-97 103
-100 36 c-77 27 -118 36 -180 38 -75 3 -84 1 -156 -35z m-47 -1022 c65 -23
116 -44 114 -46 -2 -2 -43 11 -91 28 -49 17 -90 29 -92 26 -2 -2 31 -16 74
-30 43 -15 83 -30 90 -34 22 -14 130 -254 172 -382 35 -107 101 -360 101 -388
0 -5 -53 -15 -119 -22 l-119 -13 -88 53 c-107 64 -104 62 -104 57 0 -3 44 -31
97 -62 l97 -58 110 12 c61 7 122 15 136 18 14 3 22 2 18 -2 -8 -9 -181 -34
-237 -35 -23 0 -59 15 -115 50 -119 71 -116 71 -117 14 -1 -27 -5 -62 -9 -79
-5 -19 -7 -4 -5 45 l4 75 -10 -81 -11 -80 -66 -41 c-37 -23 -71 -38 -77 -34
-13 10 -45 22 -45 16 0 -2 13 -10 29 -18 29 -14 32 -13 105 34 42 26 76 45 76
41 0 -4 -35 -28 -77 -53 l-76 -46 -126 65 c-69 37 -138 67 -153 68 -25 2 -27
0 -21 -27 3 -16 1 -29 -4 -29 -5 0 -9 10 -9 23 1 13 -4 21 -12 19 -8 -1 -11 2
-8 7 4 5 1 21 -6 35 -10 24 -3 43 72 201 75 157 82 178 72 201 -7 14 -16 23
-21 19 -5 -3 -13 0 -17 6 -4 8 -3 9 4 5 15 -9 15 -1 1 25 -5 11 -14 17 -19 14
-5 -3 -12 0 -16 6 -4 8 -3 9 4 5 18 -11 14 10 -5 25 -15 12 -16 12 -8 -1 8
-13 6 -13 -8 -1 -9 7 -14 18 -11 25 3 6 -2 2 -10 -8 -15 -19 -16 -18 -16 17 0
21 9 55 20 77 23 45 25 54 8 44 -7 -4 -8 -3 -4 5 4 6 11 9 16 6 12 -8 63 93
54 107 -4 7 -3 8 4 4 7 -4 17 3 24 18 11 26 19 30 136 56 29 7 51 14 49 16 -2
3 -44 -5 -92 -16 -48 -11 -90 -19 -92 -16 -4 4 269 74 297 75 8 1 67 -18 132
-41z m-2127 -948 c69 -24 175 -81 226 -121 39 -31 55 -37 42 -16 -4 6 12 -3
35 -21 39 -31 69 -64 44 -48 -14 8 -56 -70 -46 -86 4 -7 3 -8 -4 -4 -6 3 -16
-2 -21 -13 -14 -26 -14 -34 1 -25 7 4 8 3 4 -5 -4 -6 -11 -9 -16 -6 -12 8 -43
-53 -34 -67 4 -6 3 -8 -3 -5 -6 4 -29 -23 -52 -62 -43 -73 -49 -87 -29 -75 7
4 8 3 4 -5 -4 -6 -11 -9 -16 -6 -5 3 -14 -3 -19 -14 -14 -26 -14 -34 1 -25 7
4 8 3 4 -5 -4 -6 -11 -9 -16 -6 -4 3 -17 -11 -29 -31 -24 -40 -26 -48 -9 -38
7 4 8 3 4 -5 -4 -6 -11 -9 -16 -6 -5 3 -14 -3 -19 -14 -14 -26 -14 -34 1 -25
7 4 8 3 4 -5 -4 -6 -11 -9 -16 -6 -4 3 -18 -10 -29 -29 -24 -37 -27 -51 -9
-40 7 4 8 3 4 -5 -4 -6 -11 -9 -16 -6 -5 3 -14 -3 -19 -14 -14 -26 -14 -34 1
-25 7 4 8 3 4 -5 -4 -6 -11 -9 -16 -6 -5 3 -14 -3 -19 -14 -14 -26 -14 -34 2
-25 7 4 9 3 4 -2 -5 -5 -14 -9 -19 -9 -6 0 -13 -6 -16 -14 -3 -9 0 -11 8 -6 9
5 11 4 6 -4 -4 -6 -11 -9 -16 -6 -12 8 -33 -33 -24 -47 4 -6 3 -8 -4 -4 -6 3
-18 -4 -26 -16 -19 -27 -21 -42 -3 -32 7 4 9 3 4 -2 -5 -5 -14 -9 -20 -9 -5 0
-12 -6 -15 -14 -3 -9 0 -11 9 -6 8 5 11 4 6 -1 -5 -5 -14 -9 -20 -9 -5 0 -12
-6 -15 -14 -3 -9 0 -11 9 -6 8 5 11 4 6 -1 -5 -5 -14 -9 -20 -9 -5 0 -12 -6
-15 -14 -3 -9 0 -11 9 -6 8 5 11 4 6 -1 -5 -5 -14 -9 -20 -9 -5 0 -12 -4 -13
-10 -2 -5 65 -32 147 -60 83 -27 153 -53 155 -57 3 -4 -21 2 -52 12 -32 11
-59 18 -61 16 -2 -2 19 -12 47 -21 l51 -17 -7 -90 c-6 -77 -5 -90 7 -83 8 5
11 4 6 -1 -5 -5 -14 -9 -19 -9 -6 0 -13 -6 -16 -14 -3 -9 0 -11 9 -6 8 5 11 4
6 -1 -5 -5 -14 -9 -19 -9 -6 0 -13 -6 -16 -14 -3 -9 0 -11 9 -6 8 5 11 4 6 -1
-5 -5 -14 -9 -19 -9 -6 0 -13 -6 -16 -14 -3 -9 0 -11 9 -6 8 5 11 4 6 -1 -5
-5 -14 -9 -19 -9 -6 0 -13 -6 -16 -14 -3 -9 0 -11 9 -5 12 7 12 5 0 -9 -16
-20 -25 -22 -16 -4 4 6 0 3 -9 -7 -15 -18 -13 -41 3 -31 5 2 17 -5 27 -16 24
-27 116 -73 399 -199 284 -126 307 -138 302 -153 -2 -7 -10 -12 -17 -12 -7 0
-15 -6 -18 -14 -3 -9 0 -11 9 -6 8 5 11 4 6 -1 -5 -5 -14 -9 -19 -9 -6 0 -13
-6 -16 -14 -3 -9 0 -11 9 -6 8 5 11 4 6 -1 -5 -5 -14 -9 -19 -9 -6 0 -13 -6
-16 -14 -3 -8 0 -11 7 -7 17 11 13 0 -6 -15 -15 -12 -16 -12 -8 1 8 13 7 13
-8 1 -18 -14 -24 -36 -7 -26 22 13 7 -3 -61 -70 -40 -39 -69 -64 -65 -57 11
19 -2 14 -40 -15 -30 -22 -52 -28 -147 -38 -62 -7 -94 -13 -72 -13 83 -2 183
15 217 38 l33 22 -30 -26 c-35 -30 -42 -32 -206 -46 -125 -11 -126 -11 -190
14 -95 39 -187 97 -254 161 -59 56 -59 56 -5 9 111 -96 282 -185 350 -183 31
1 29 2 -14 9 -26 5 -92 30 -145 56 -80 40 -113 65 -201 148 -58 56 -92 86 -76
68 41 -44 28 -41 -15 5 -18 20 -28 33 -21 29 22 -13 12 10 -15 35 -15 13 -21
16 -14 7 19 -25 8 -22 -15 4 -10 12 -13 18 -6 14 18 -11 15 9 -5 25 -11 10
-14 10 -9 2 12 -20 1 -15 -20 9 -15 19 -16 20 -1 9 28 -22 20 3 -10 30 -15 13
-21 16 -14 7 19 -25 8 -22 -15 4 -10 12 -13 18 -6 14 19 -11 14 9 -8 29 -10 9
-38 73 -61 142 -22 68 -43 122 -45 120 -2 -2 3 -24 11 -48 9 -24 12 -39 7 -34
-13 14 -43 107 -37 113 3 3 5 -1 5 -8 0 -7 3 -11 6 -7 3 3 -13 58 -35 122 -32
90 -41 133 -43 188 l-2 72 -6 -70 c-4 -38 -7 -54 -8 -34 -1 19 -9 135 -17 256
-13 197 -13 224 0 259 9 21 13 28 10 14 -4 -14 -8 -45 -10 -70 l-4 -45 8 40
c4 22 22 89 40 149 18 59 30 110 28 112 -2 3 -10 -16 -17 -41 -7 -25 -15 -43
-17 -41 -8 8 28 107 37 101 8 -5 85 244 77 251 -2 3 -10 -16 -17 -41 -7 -25
-15 -43 -17 -41 -9 8 28 106 38 100 5 -3 9 3 9 12 0 10 33 49 73 87 64 62 66
65 14 22 -32 -27 -69 -62 -82 -79 -17 -22 -23 -25 -19 -11 4 11 43 52 87 90
45 39 78 64 73 58 -13 -23 7 -14 39 16 24 24 56 36 165 64 74 20 142 36 151
36 9 1 42 -8 74 -19z m760 -133 c6 -47 2 -61 -40 -157 -53 -117 -59 -127 -70
-109 -6 8 -4 10 5 4 8 -5 11 -3 8 6 -3 8 -10 13 -16 12 -6 -2 -21 12 -33 29
-13 17 -17 28 -9 23 10 -6 12 -4 7 8 -4 10 -2 16 6 14 7 -1 12 8 11 20 0 12 4
19 9 16 6 -4 8 1 4 11 -5 11 -3 15 5 10 8 -5 9 -2 5 9 -4 10 -2 16 6 14 7 -1
12 8 11 20 0 12 4 19 9 16 6 -4 8 1 4 11 -5 11 -3 15 5 10 8 -5 9 -2 5 9 -4
10 -2 16 6 14 7 -1 12 8 11 20 0 12 4 19 9 16 6 -4 8 1 4 11 -5 11 -3 15 5 10
8 -5 9 -2 4 11 -5 15 -4 16 8 6 8 -7 18 -36 21 -64z m1023 -37 c81 -28 119
-46 110 -51 -11 -7 -11 -9 0 -9 13 0 105 -182 115 -225 2 -11 3 -9 2 5 -2 14
-6 36 -10 50 -4 18 -2 16 9 -7 17 -37 24 -77 13 -80 -28 -10 -57 6 -130 74
l-82 77 70 -72 c39 -40 87 -80 107 -89 21 -9 36 -18 34 -21 -12 -12 -81 38
-151 109 -44 45 -74 79 -67 75 20 -12 13 10 -10 30 -19 15 -20 16 -9 2 21 -28
7 -21 -20 9 -13 15 -16 21 -6 14 9 -7 17 -9 17 -3 0 12 -25 34 -32 27 -3 -3
-11 3 -19 12 -13 16 -12 17 4 4 10 -8 17 -9 17 -3 0 11 -19 27 -32 27 -3 0
-10 4 -15 9 -5 5 -2 6 6 1 9 -5 12 -3 9 6 -3 8 -10 14 -15 14 -6 0 -15 4 -20
9 -5 5 -3 6 5 2 6 -4 12 -3 12 3 0 5 39 -3 87 -20 47 -16 88 -27 90 -25 3 2
-38 18 -89 36 -51 17 -99 34 -107 37 -8 4 -11 1 -7 -6 15 -24 -3 -9 -20 17
-11 17 -12 23 -3 16 8 -7 69 -31 137 -54z m-606 -145 c3 3 11 -2 19 -12 12
-14 12 -15 0 -9 -9 6 -12 4 -9 -5 3 -8 10 -14 16 -14 6 0 17 -7 24 -15 11 -12
11 -12 -4 -1 -10 7 -18 9 -18 3 0 -12 25 -34 32 -27 3 3 11 -2 19 -12 9 -10 9
-14 2 -10 -15 9 -97 -148 -87 -165 4 -7 3 -8 -4 -4 -14 9 -135 -224 -142 -274
-5 -33 -7 -30 -42 60 l-37 95 13 75 c7 41 17 84 21 95 6 15 5 17 -4 9 -7 -6
-18 -48 -25 -93 -7 -45 -16 -85 -20 -88 -3 -4 -4 7 -1 23 3 16 9 55 15 88 10
60 24 87 42 83 6 -1 13 4 16 12 3 10 0 11 -9 5 -12 -7 -12 -5 0 9 16 20 26 23
15 5 -5 -9 -2 -9 9 1 18 14 24 36 7 26 -16 -10 -11 1 7 16 15 12 16 12 8 -1
-8 -13 -7 -13 8 -1 20 16 23 36 5 25 -8 -4 -10 -3 -5 2 5 5 14 9 20 9 5 0 12
6 15 14 3 8 0 11 -7 7 -17 -11 -13 0 6 15 15 12 16 12 8 -1 -8 -13 -7 -13 8
-1 19 15 23 36 5 25 -7 -5 -8 -3 -4 5 5 7 11 10 14 7 7 -7 32 13 32 26 0 5 -5
6 -12 2 -7 -5 -8 -3 -4 5 6 9 12 9 25 -3 10 -9 20 -14 23 -11z m-710 -22 c13
-14 17 -23 9 -21 -8 2 -36 -48 -82 -147 -37 -82 -82 -181 -100 -220 -83 -181
-87 -191 -69 -180 26 16 6 -6 -27 -30 -38 -27 -38 -27 -10 -1 51 47 17 27 -68
-39 -83 -64 -83 -64 -90 -120 -3 -31 -5 -59 -2 -61 3 -3 8 21 12 53 4 32 10
53 12 46 2 -6 -1 -38 -7 -70 -7 -32 -12 -64 -13 -70 -1 -17 -2 -16 -18 4 -12
14 -12 16 0 9 9 -6 12 -4 9 5 -3 8 -10 14 -16 14 -6 0 -17 6 -24 14 -11 11
-11 13 1 6 9 -5 12 -3 9 6 -3 8 -10 14 -16 14 -5 0 -14 4 -19 9 -5 5 -2 6 6 1
9 -5 12 -3 9 6 -3 8 -11 14 -18 14 -7 0 -15 7 -17 15 -4 13 -3 13 6 0 6 -8 11
-12 11 -8 0 3 3 14 7 24 5 13 3 15 -8 9 -8 -5 -11 -5 -6 1 5 5 14 9 19 9 6 0
13 6 16 14 3 9 0 11 -8 6 -9 -5 -11 -4 -6 4 4 6 11 9 16 6 5 -3 14 3 19 14 14
26 14 34 -1 25 -7 -4 -8 -3 -4 5 4 6 11 9 16 6 12 -7 33 32 25 45 -4 6 -1 9 6
8 6 -2 14 3 17 11 3 9 0 11 -8 6 -9 -5 -11 -4 -6 4 4 6 11 9 16 6 11 -7 63 83
55 95 -4 6 -1 9 6 8 6 -2 14 3 17 11 3 9 0 11 -8 6 -9 -5 -11 -4 -6 4 4 6 11
9 16 6 12 -7 33 32 25 45 -4 6 -1 9 6 8 6 -2 14 3 17 11 3 9 0 11 -8 6 -9 -5
-11 -4 -6 4 4 6 11 9 16 6 12 -7 33 32 25 45 -4 6 -1 9 6 8 6 -2 14 3 17 11 3
9 0 11 -9 6 -8 -5 -11 -4 -6 1 5 5 14 9 20 9 5 0 12 6 15 14 3 9 0 11 -8 6 -9
-5 -11 -4 -6 4 4 6 11 9 16 6 5 -3 14 3 19 14 14 26 14 34 -1 25 -8 -4 -10 -3
-5 2 5 5 14 9 19 9 6 0 13 6 16 14 3 9 0 11 -8 6 -9 -5 -11 -4 -6 4 4 6 11 9
16 6 12 -7 33 32 25 45 -4 6 -1 9 6 8 6 -2 14 3 17 11 3 9 0 11 -9 6 -8 -5
-11 -4 -6 1 5 5 14 9 20 9 5 0 12 6 15 14 3 9 0 11 -9 6 -8 -5 -11 -4 -6 1 5
5 14 9 20 9 5 0 12 6 15 14 3 9 0 11 -9 6 -8 -5 -11 -4 -6 1 5 5 14 9 20 9 5
0 12 6 15 14 3 9 0 11 -8 6 -8 -5 -11 -4 -7 2 10 17 36 11 59 -14z m108 -188
c5 0 12 -4 17 -9 5 -5 2 -6 -6 -1 -10 6 -12 2 -7 -13 4 -13 -1 -37 -14 -62
-11 -22 -18 -46 -14 -52 4 -6 3 -8 -4 -4 -10 6 -92 -128 -92 -151 0 -5 14 -24
31 -43 17 -19 26 -27 19 -17 -17 24 -7 21 16 -5 10 -12 13 -18 7 -14 -23 13
-13 -10 14 -35 15 -13 21 -16 14 -6 -19 24 -8 21 15 -5 10 -12 13 -18 7 -14
-19 11 -16 -9 4 -25 11 -10 14 -10 9 -1 -12 19 -1 14 20 -10 15 -19 16 -20 2
-9 -29 22 -21 -3 9 -30 15 -13 21 -16 14 -6 -19 24 -8 21 15 -5 10 -12 13 -18
7 -14 -22 12 -14 -10 9 -30 19 -15 20 -16 9 -1 -19 24 -8 21 15 -5 10 -12 13
-18 6 -14 -9 5 -15 1 -19 -13 -3 -12 -8 -21 -12 -21 -3 0 -57 18 -120 40 -63
22 -115 39 -118 37 -2 -2 51 -23 119 -47 115 -40 122 -41 135 -24 7 10 13 13
13 7 0 -7 -5 -15 -10 -18 -6 -4 -8 -10 -5 -15 3 -5 -59 14 -137 42 -79 27
-179 63 -223 78 -44 16 -75 29 -69 29 6 1 44 -10 84 -24 40 -14 75 -23 77 -21
2 2 -26 14 -64 26 -37 13 -69 24 -71 25 -2 2 17 44 43 94 25 51 43 97 39 103
-4 7 -3 8 4 4 14 -8 106 170 96 186 -4 7 -3 8 4 4 7 -4 23 16 42 53 33 67 38
85 14 55 -14 -18 -14 -18 -3 5 l12 25 19 -25 c11 -13 24 -24 28 -24z m1086
-47 c15 -19 16 -20 2 -9 -11 8 -18 9 -18 3 0 -11 19 -27 33 -27 4 0 7 -3 7 -7
0 -5 -2 -7 -3 -5 -7 4 -37 -25 -37 -35 0 -6 7 -5 15 2 28 24 15 4 -17 -26 -27
-24 -29 -25 -13 -4 l20 25 -23 -19 c-12 -11 -21 -24 -19 -29 1 -5 27 -17 56
-28 60 -21 106 -48 97 -56 -8 -8 25 -44 34 -38 4 3 13 -1 18 -8 9 -10 -41 -65
-213 -237 -206 -206 -264 -256 -247 -212 4 10 7 12 10 4 2 -7 8 -9 13 -6 6 4
6 10 0 18 -6 7 -7 22 -4 35 3 14 8 18 13 11 4 -6 58 134 120 312 105 302 126
358 134 358 2 0 11 -10 22 -22z m3664 -259 c63 -23 122 -48 130 -56 12 -12 12
-14 1 -8 -17 10 -21 22 57 -150 33 -71 70 -161 82 -198 13 -38 26 -63 30 -57
4 6 12 -7 18 -28 16 -52 14 -66 -3 -22 -21 53 -17 23 5 -45 11 -33 17 -45 14
-27 -3 17 -3 32 -1 32 7 0 70 -270 64 -276 -2 -2 -15 43 -27 101 -13 57 -26
103 -28 100 -3 -2 5 -48 18 -100 12 -53 20 -98 18 -100 -2 -2 -49 -11 -103
-19 -94 -15 -85 -15 75 -2 36 3 6 -3 -67 -14 l-132 -19 -103 59 c-56 33 -99
60 -94 60 5 0 33 -14 62 -31 30 -17 54 -28 54 -25 0 10 -110 67 -120 61 -5 -3
-10 -25 -11 -48 0 -23 -4 -60 -9 -82 -6 -31 -8 -23 -5 40 l4 80 -11 -82 -10
-82 -64 -41 -64 -40 -140 70 c-77 38 -143 70 -147 69 -5 0 58 -34 140 -75
l147 -74 53 33 c61 39 107 64 92 50 -5 -5 -40 -28 -77 -51 l-68 -42 -141 71
c-145 72 -158 75 -159 27 0 -25 -17 -22 -30 5 -11 21 -10 21 4 3 23 -28 20 -8
-6 40 l-21 41 57 118 c31 66 54 125 51 132 -2 8 -1 12 4 9 4 -3 19 18 32 45
l23 51 -21 37 c-11 20 -26 36 -31 36 -6 0 -14 4 -19 9 -5 5 -3 6 5 2 6 -4 12
-4 12 1 0 15 -19 38 -32 38 -7 0 -13 5 -13 12 0 6 -4 15 -9 20 -5 4 -6 3 -3
-3 4 -7 0 -14 -8 -18 -21 -8 -20 55 0 95 9 16 13 35 9 41 -4 6 -3 8 4 4 6 -4
27 24 51 68 42 76 52 104 25 70 -14 -18 -15 -18 -4 3 6 13 14 22 18 21 4 -1
15 2 25 7 10 4 76 22 145 40 70 18 120 33 112 34 -8 0 -75 -15 -148 -33 -74
-19 -131 -31 -127 -28 5 5 259 75 295 81 3 1 57 -17 120 -40z m-2803 -88 c69
-8 75 -12 190 -94 65 -46 127 -95 138 -108 11 -12 14 -19 8 -15 -7 4 -13 3
-13 -2 0 -12 25 -33 32 -27 3 3 11 -3 19 -12 13 -16 12 -17 -3 -4 -10 7 -18 9
-18 3 0 -12 25 -34 32 -27 3 3 11 -3 19 -12 13 -16 12 -17 -3 -4 -26 20 -22
-2 4 -25 12 -10 18 -13 14 -6 -10 18 -1 15 15 -5 10 -11 10 -14 2 -9 -19 11
-16 -9 4 -25 11 -10 14 -10 9 -1 -11 18 -1 15 15 -5 10 -11 10 -14 2 -9 -7 4
-13 3 -13 -2 0 -12 25 -33 32 -27 3 3 11 -2 19 -12 9 -11 10 -14 2 -9 -19 11
-16 -9 4 -25 15 -12 16 -12 8 1 -8 13 -7 13 8 1 18 -15 23 -26 7 -16 -17 10
-11 -12 7 -26 15 -12 16 -12 8 1 -8 13 -7 13 8 1 19 -15 23 -26 6 -15 -7 4
-10 1 -7 -7 3 -8 10 -14 16 -14 5 0 14 -4 19 -9 5 -5 3 -6 -4 -2 -18 10 -16
-1 7 -69 11 -32 20 -60 20 -62 0 -2 -19 -1 -42 2 -29 4 -56 1 -83 -10 -26 -10
-30 -13 -10 -8 40 10 154 10 148 1 -2 -5 1 -8 8 -8 7 0 10 -2 7 -5 -3 -3 -27
0 -54 6 -46 11 -58 9 -166 -25 -137 -43 -180 -48 -58 -7 47 16 81 29 75 30
-20 2 -160 -47 -160 -56 0 -16 -169 -163 -177 -155 -11 11 -129 483 -126 500
2 7 27 -86 56 -208 30 -122 56 -219 58 -217 3 3 -11 68 -31 145 -19 78 -60
255 -91 394 -30 139 -57 261 -60 271 -4 13 1 17 23 18 23 2 20 3 -12 9 -58 10
-5 11 82 1z m-143 -286 c36 -153 64 -280 62 -282 -2 -3 -12 30 -22 73 -10 42
-20 71 -22 66 -5 -16 70 -288 117 -423 l40 -114 -24 -25 c-15 -16 -43 -88 -80
-203 -31 -98 -55 -180 -53 -183 3 -2 13 23 23 56 10 34 22 63 26 66 4 2 -5
-32 -19 -76 -14 -44 -29 -75 -32 -70 -4 6 -24 -44 -45 -110 l-38 -120 11 -238
c8 -177 16 -255 30 -310 11 -39 16 -74 12 -77 -10 -6 -117 73 -155 116 -28 32
-28 32 -2 10 47 -42 30 -8 -20 39 -26 25 -39 34 -28 20 17 -21 15 -20 -13 4
-32 30 -45 50 -17 26 8 -7 15 -8 15 -2 0 12 -25 34 -32 27 -3 -3 -11 2 -19 12
-9 11 -10 14 -1 9 6 -4 12 -3 12 2 0 12 -25 33 -32 27 -3 -3 -11 3 -19 12 -13
16 -12 17 4 4 9 -7 17 -9 17 -3 0 13 -25 33 -32 26 -3 -3 -9 0 -14 7 -4 8 -3
10 4 5 18 -11 14 10 -5 25 -15 12 -16 12 -8 -1 8 -13 7 -13 -8 -1 -18 15 -23
26 -7 16 17 -10 11 12 -7 26 -15 12 -16 12 -8 -1 8 -13 7 -13 -8 -1 -19 15
-23 26 -6 15 7 -4 10 -1 7 7 -3 8 -10 14 -16 14 -5 0 -14 4 -19 9 -5 5 -2 6 6
1 9 -5 12 -3 9 6 -3 8 -10 14 -16 14 -5 0 -14 4 -19 9 -5 5 -3 6 5 2 10 -6 11
-1 6 21 -11 42 -33 90 -34 73 -2 -18 -38 78 -38 100 0 8 8 -7 19 -35 22 -57
20 -45 -22 115 -16 63 -41 178 -54 255 -20 111 -24 125 -20 70 3 -56 2 -62 -5
-30 -13 63 -42 331 -38 357 2 13 9 -39 17 -115 8 -75 16 -135 19 -132 3 2 -1
60 -8 127 l-12 123 52 178 c28 98 49 181 46 184 -3 4 -6 -1 -6 -10 0 -9 -4
-18 -10 -22 -6 -4 -6 5 0 22 5 15 18 61 30 101 12 41 23 72 25 70 3 -2 -5 -35
-16 -72 -11 -37 -19 -70 -16 -72 4 -4 47 137 47 156 0 6 -6 8 -12 4 -8 -4 -10
-3 -5 2 5 5 14 9 20 9 5 0 12 6 15 14 3 8 0 11 -7 7 -19 -12 -12 0 11 20 22
19 23 19 8 -1 -15 -20 -14 -20 8 -1 22 19 31 43 12 31 -16 -10 -11 1 7 16 15
12 16 12 8 -1 -5 -9 0 -8 13 4 24 21 31 46 7 26 -32 -27 -13 -2 36 45 28 28
49 43 47 35 -2 -8 4 -14 12 -15 14 0 28 -39 28 -80 0 -11 -7 3 -14 30 -12 45
-13 46 -9 10 3 -22 17 -107 30 -190 13 -82 29 -197 36 -255 7 -57 14 -99 17
-92 2 6 -4 71 -13 143 -9 72 -14 133 -11 136 3 4 6 0 6 -8 0 -9 14 -120 30
-249 17 -128 29 -240 27 -249 -1 -9 -9 35 -16 97 -8 62 -16 110 -19 108 -2 -3
1 -51 8 -108 12 -106 12 -105 128 -366 33 -75 38 -82 64 -80 29 2 43 31 32 65
-5 14 -4 15 4 4 9 -12 12 -10 17 11 8 31 -49 153 -67 142 -7 -4 -8 -3 -4 4 4
6 -9 43 -29 81 -19 39 -35 81 -36 93 0 22 -1 22 -9 3 -6 -17 -8 -15 -13 15 -4
19 -20 195 -37 390 -17 195 -33 369 -35 385 -4 22 -2 26 5 15 8 -13 10 -13 10
2 0 22 60 55 69 39 4 -6 18 -58 31 -116 12 -58 25 -103 27 -101 3 3 -7 55 -21
116 -14 60 -26 113 -26 117 0 27 18 -40 74 -282z m-1992 89 c85 -30 283 -130
301 -152 6 -8 -6 -4 -28 10 -51 32 -105 60 -105 54 0 -2 26 -19 58 -36 31 -18
80 -50 109 -71 54 -41 69 -48 57 -26 -5 7 -1 7 12 -3 29 -22 30 -24 14 -18
-11 4 -16 -3 -17 -26 -2 -24 0 -28 8 -16 9 13 10 13 6 0 -10 -38 -112 9 -325
149 -84 56 -156 101 -160 101 -4 0 45 -34 108 -76 106 -71 175 -122 105 -79
-74 46 -248 167 -232 161 11 -3 17 0 17 10 0 9 -5 12 -12 8 -6 -4 -8 -3 -4 4
5 8 20 7 53 -3 64 -19 67 -11 4 10 -28 9 -51 18 -51 21 0 7 5 5 82 -22z m-74
-160 c12 -8 26 -13 31 -10 10 7 76 -41 76 -56 0 -6 6 -13 14 -16 9 -3 11 0 6
7 -4 7 56 -29 133 -81 77 -51 139 -95 137 -97 -11 -11 -406 196 -421 220 -3 6
23 -8 59 -30 108 -66 125 -73 145 -61 16 11 15 11 -2 6 -18 -6 -98 33 -179 88
-42 29 -52 32 -41 14 5 -9 2 -9 -9 1 -18 15 -23 26 -7 16 6 -3 10 -1 10 4 0
16 22 13 48 -5z m116 -218 c265 -137 355 -186 343 -186 -4 0 -87 42 -185 94
-216 114 -399 206 -409 206 -5 0 93 -52 217 -116 271 -140 350 -183 350 -192
0 -4 -11 -48 -25 -97 -26 -96 -33 -146 -10 -80 14 40 14 40 8 5 -3 -19 -7 -38
-10 -42 -5 -10 -13 -7 -307 131 -142 67 -260 120 -262 118 -2 -2 124 -63 281
-137 157 -73 284 -135 282 -137 -2 -1 -125 54 -273 123 -148 69 -284 132 -301
139 -32 14 -48 30 -18 19 10 -4 7 7 -10 39 -16 27 -23 51 -18 62 5 14 3 16 -8
10 -8 -5 -11 -5 -6 1 5 5 14 9 20 9 5 0 12 6 15 14 3 9 0 11 -8 6 -9 -5 -11
-4 -6 4 4 6 11 9 16 6 5 -3 14 3 19 14 14 26 14 34 -1 25 -8 -4 -10 -3 -5 2 5
5 14 9 20 9 5 0 12 6 15 14 3 9 0 11 -9 6 -8 -5 -11 -4 -6 1 5 5 14 9 20 9 5
0 12 6 15 14 3 9 0 11 -9 5 -12 -7 -12 -5 0 9 7 9 16 17 19 17 3 0 114 -56
246 -124z m899 -73 c-10 -3 -10 -10 -2 -24 5 -11 14 -17 19 -14 5 3 12 0 16
-6 4 -8 3 -9 -4 -5 -17 10 -15 1 8 -45 12 -22 25 -37 30 -34 5 3 12 0 16 -6 4
-8 3 -9 -4 -5 -7 4 -12 2 -12 -3 0 -16 -105 -13 -145 3 -19 8 -35 11 -35 7 0
-16 90 -33 150 -29 33 2 55 1 48 -4 -19 -12 -120 -10 -159 3 -44 15 -51 22
-43 43 5 14 9 15 16 4 7 -9 8 -7 5 9 -3 12 0 21 5 20 6 -1 13 4 16 12 3 8 0
11 -7 7 -19 -12 -12 0 16 25 14 13 23 18 18 10 -5 -9 -3 -12 6 -9 8 3 14 9 14
14 0 16 16 34 28 33 9 0 9 -2 0 -6z m1844 -205 c15 -6 32 -12 37 -12 5 -1 13
-11 17 -24 6 -15 5 -21 -1 -17 -6 3 -10 13 -10 22 0 9 -3 14 -6 10 -3 -3 10
-55 31 -116 l36 -109 2 -220 c1 -128 6 -218 11 -214 5 3 6 0 2 -7 -4 -6 -11
-9 -16 -6 -12 7 -33 -32 -25 -45 4 -6 1 -9 -6 -8 -6 2 -14 -3 -17 -11 -3 -9 0
-11 8 -6 9 5 11 4 6 -4 -4 -6 -11 -9 -16 -6 -5 3 -14 -3 -19 -14 -14 -26 -14
-34 1 -25 7 4 8 3 4 -5 -4 -6 -11 -9 -16 -6 -4 3 -18 -10 -29 -29 -24 -37 -27
-51 -9 -40 7 4 8 3 4 -5 -4 -6 -11 -9 -16 -6 -4 3 -18 -10 -29 -29 -24 -37
-27 -51 -9 -40 7 4 8 3 4 -5 -4 -6 -11 -9 -16 -6 -4 3 -17 -11 -29 -31 -24
-41 -26 -48 -8 -38 7 4 9 3 4 -2 -5 -5 -14 -9 -20 -9 -5 0 -12 -6 -15 -14 -3
-9 0 -11 9 -6 8 5 11 4 6 -1 -5 -5 -14 -9 -20 -9 -5 0 -12 -6 -15 -14 -3 -9 0
-11 9 -6 8 5 11 4 6 -1 -5 -5 -14 -9 -20 -9 -5 0 -12 -6 -15 -14 -3 -9 0 -11
8 -6 9 5 11 4 6 -4 -4 -6 -11 -9 -16 -6 -5 3 -14 -4 -20 -16 -8 -15 -9 -19 -1
-15 6 4 11 3 11 -1 0 -5 19 -14 43 -20 23 -6 55 -17 71 -23 l29 -11 -53 -54
c-30 -30 -56 -52 -59 -49 -3 2 -28 -18 -55 -45 -40 -39 -62 -52 -101 -60 l-50
-10 55 5 c46 4 62 11 95 42 l40 37 -38 -41 -39 -41 -168 -27 c-129 -21 -174
-24 -190 -16 -11 6 -20 13 -20 16 0 2 9 0 20 -6 16 -8 49 -7 131 7 61 9 106
19 100 21 -6 2 -57 -4 -112 -13 -59 -10 -105 -13 -110 -8 -21 21 -59 160 -61
222 l-1 66 -7 -65 c-6 -58 -7 -60 -9 -20 -1 25 -8 138 -15 251 -13 201 -12
254 5 264 4 3 4 -8 -1 -24 -4 -15 -4 -73 0 -127 l9 -99 -3 100 c-3 98 -2 104
63 325 l67 225 44 -2 45 -2 -39 10 c-58 14 -55 19 8 12 l56 -6 -1 34 c0 49
-30 117 -49 111 -8 -3 -13 -3 -10 -1 3 2 25 22 49 44 24 22 41 34 37 28 -13
-23 5 -14 55 30 44 38 62 45 191 79 79 20 144 37 145 37 1 1 14 -4 30 -11z
m799 -120 c-2 -87 -5 -100 -45 -189 -41 -92 -56 -108 -78 -84 -4 4 -2 5 6 0 9
-5 12 -3 9 6 -3 8 -10 14 -15 14 -6 0 -15 4 -20 9 -5 5 -2 6 6 1 9 -5 12 -3 9
6 -3 8 -10 14 -15 14 -6 0 -15 4 -20 9 -4 5 -3 6 4 2 15 -8 148 246 148 282
-1 12 2 22 5 22 4 0 6 -42 6 -92z m-488 -28 c45 -34 82 -64 82 -67 0 -2 -4 -2
-9 1 -11 7 -33 -43 -25 -56 4 -7 2 -8 -4 -4 -14 8 -46 -50 -36 -66 4 -7 3 -8
-4 -4 -6 3 -16 -2 -21 -13 -14 -26 -14 -34 2 -25 6 4 8 3 4 -1 -9 -11 -37 -16
-37 -7 -1 4 -9 63 -19 132 -12 80 -20 111 -21 85 -2 -39 -3 -39 -11 14 -5 30
-7 56 -4 59 3 3 5 -3 5 -14 0 -15 2 -16 9 -5 7 11 23 4 75 -37 36 -29 69 -52
73 -52 10 0 -118 99 -144 112 -13 6 -23 16 -23 21 0 6 5 6 13 0 6 -5 49 -38
95 -73z m1517 -36 c132 -47 164 -62 110 -51 -26 6 -27 5 -9 -4 31 -16 137
-249 121 -265 -8 -8 -48 15 -87 50 l-35 31 30 -34 c17 -18 48 -42 70 -52 22
-10 34 -19 27 -19 -23 0 -66 27 -101 64 -19 20 -31 36 -26 36 4 0 0 9 -10 20
-10 11 -21 18 -25 15 -4 -2 -22 12 -41 32 -19 20 -28 33 -21 29 6 -4 12 -3 12
2 0 12 -25 33 -32 27 -3 -3 -11 2 -19 12 -9 11 -10 14 -1 9 18 -11 15 9 -5 25
-11 10 -14 10 -9 2 11 -19 1 -16 -15 4 -10 11 -10 14 -1 9 18 -11 15 9 -5 25
-15 12 -16 12 -8 -1 8 -13 7 -13 -8 -1 -19 15 -23 26 -6 15 7 -4 10 -1 7 7 -3
8 -10 14 -15 14 -6 0 -15 3 -18 7 -12 11 34 1 114 -27 41 -14 76 -23 78 -21 2
2 -33 16 -79 32 -92 30 -148 53 -133 54 5 0 68 -21 140 -46z m-1334 -151 c13
-15 16 -21 7 -14 -10 7 -18 9 -18 3 0 -15 26 -33 35 -24 4 4 2 -4 -5 -18 -18
-35 -24 -39 -15 -10 4 14 5 22 1 19 -14 -13 -253 -549 -240 -538 8 6 14 8 14
4 0 -9 -26 -31 -55 -46 -16 -9 -16 -7 2 8 17 13 20 22 13 33 -8 13 -10 12 -10
-4 0 -11 -2 -17 -5 -15 -2 3 7 70 20 150 14 79 25 146 25 149 0 3 5 -2 10 -10
8 -13 10 -13 10 2 0 9 3 24 7 34 5 13 3 15 -7 9 -9 -5 -11 -4 -6 4 4 6 11 9
16 6 5 -3 14 3 19 14 14 26 14 34 -1 25 -8 -4 -10 -3 -5 2 5 5 14 9 20 9 5 0
12 6 15 14 3 9 0 11 -9 6 -8 -5 -11 -4 -6 1 5 5 14 9 20 9 5 0 12 6 15 14 3 9
0 11 -8 6 -9 -5 -11 -4 -6 4 4 6 11 9 16 6 5 -3 14 3 19 14 14 26 14 34 -1 25
-8 -4 -10 -3 -5 2 5 5 14 9 20 9 5 0 12 6 15 14 3 9 0 11 -9 6 -8 -5 -11 -4
-6 1 5 5 14 9 20 9 5 0 12 6 15 14 3 9 0 11 -9 6 -8 -5 -11 -4 -6 1 5 5 14 9
20 9 5 0 12 6 15 14 3 9 0 11 -9 6 -8 -5 -11 -4 -6 1 5 5 13 10 18 10 5 1 14
2 20 3 5 0 7 6 4 11 -4 6 -11 7 -17 4 -7 -4 -8 -2 -4 4 10 16 9 16 37 -15z
m736 3 c4 -5 3 -6 -4 -2 -19 11 -16 -9 4 -25 15 -12 16 -12 8 1 -8 13 -7 13 8
1 18 -15 23 -26 7 -16 -17 10 -11 -12 7 -26 11 -10 14 -10 9 -1 -11 18 -1 15
15 -5 12 -14 12 -16 0 -9 -9 6 -12 5 -9 -5 3 -8 11 -13 17 -11 9 2 9 -3 1 -18
-13 -25 -21 -26 -13 -2 3 11 0 9 -12 -6 -9 -13 -14 -30 -11 -38 3 -8 1 -12 -4
-9 -11 7 -125 -211 -124 -237 0 -9 -3 -15 -7 -12 -16 9 -59 -94 -61 -146 -1
-27 -3 -50 -4 -50 -5 0 -54 133 -51 137 3 2 13 -19 23 -47 10 -28 20 -48 21
-43 2 4 -13 48 -32 96 l-34 89 14 76 c18 93 18 95 3 86 -8 -4 -10 -3 -5 2 5 5
14 9 20 9 5 0 12 6 15 14 3 9 0 11 -9 6 -8 -5 -11 -4 -6 1 5 5 14 9 20 9 5 0
12 6 15 14 3 8 0 11 -7 7 -17 -11 -13 0 6 15 15 12 16 12 8 -1 -8 -13 -7 -13
8 -1 18 14 24 36 7 26 -16 -10 -11 1 7 16 15 12 16 12 8 -1 -8 -13 -7 -13 8
-1 20 16 23 36 5 25 -8 -4 -10 -3 -5 2 5 5 14 9 20 9 5 0 12 6 15 14 3 9 0 11
-9 5 -12 -7 -12 -5 0 9 16 20 26 23 15 5 -5 -9 -2 -9 9 1 20 16 23 36 5 25
-10 -6 -10 -5 0 8 13 16 65 19 79 4z m-621 -178 c4 -7 3 -8 -4 -4 -15 9 -15 1
-1 -25 5 -11 14 -17 19 -14 5 3 12 0 16 -6 4 -8 3 -9 -4 -5 -7 4 -12 1 -12 -8
0 -8 -3 -22 -7 -32 -5 -13 -3 -15 7 -9 9 5 11 4 6 -4 -4 -6 -11 -9 -16 -6 -12
8 -53 -73 -44 -87 4 -7 3 -8 -4 -4 -6 4 -18 -6 -27 -23 -18 -36 -19 -45 -3
-35 7 4 8 3 4 -5 -4 -6 -11 -9 -16 -6 -13 8 -32 -33 -25 -54 3 -10 15 -27 28
-37 18 -16 19 -16 8 -1 -19 24 -8 21 15 -5 10 -12 13 -18 7 -14 -22 12 -14
-10 9 -30 19 -15 20 -16 9 -1 -19 24 -8 21 15 -5 10 -12 13 -18 7 -14 -7 4
-13 3 -13 -2 0 -12 25 -33 32 -27 3 3 13 -5 24 -17 15 -18 16 -20 2 -9 -29 22
-21 -3 9 -30 15 -13 21 -16 14 -6 -19 24 -8 21 15 -5 10 -12 13 -18 7 -14 -22
12 -14 -10 9 -30 19 -15 20 -16 9 -1 -19 24 -8 21 15 -5 10 -12 13 -18 5 -13
-9 5 -12 3 -9 -6 3 -8 10 -13 16 -12 6 1 7 -7 4 -19 -5 -21 -6 -21 -12 -3 -6
18 -7 18 -12 -3 -3 -11 -3 -23 1 -25 15 -9 -26 4 -222 73 -114 40 -206 75
-203 77 2 3 37 -7 77 -21 39 -15 74 -25 76 -22 2 2 -25 14 -61 26 -36 12 -66
24 -66 26 0 3 9 23 20 45 12 22 18 45 14 51 -4 6 -3 8 4 4 13 -8 114 183 107
202 -3 7 -1 10 5 7 5 -3 30 35 56 85 41 81 67 120 79 120 2 0 7 -5 11 -12z
m1080 -60 c15 -19 16 -20 2 -9 -25 19 -22 2 4 -26 l22 -23 -37 -38 c-40 -41
-47 -62 -19 -62 31 0 136 -57 169 -92 l33 -34 -68 -64 -67 -65 55 60 55 60
-62 -59 c-34 -33 -59 -64 -56 -70 3 -6 2 -7 -2 -3 -9 8 -225 -201 -225 -218 0
-5 39 29 88 75 48 47 11 8 -82 -87 -166 -168 -169 -171 -198 -161 l-30 11 61
27 c34 14 58 30 54 35 -5 4 -3 5 3 2 15 -9 39 19 24 28 -5 3 -10 1 -10 -6 0
-7 -2 -10 -5 -7 -3 2 5 33 16 67 12 34 23 60 25 58 2 -2 -3 -23 -11 -47 -8
-23 -15 -48 -14 -54 1 -12 13 20 119 324 40 113 86 243 102 290 17 47 31 91
31 98 0 16 1 16 23 -10z m658 -356 c8 -13 107 -444 103 -448 -2 -3 -17 49 -32
113 -15 65 -39 166 -53 226 -14 59 -29 107 -33 107 -5 0 -4 -10 1 -22 5 -13
32 -122 60 -243 28 -121 53 -221 56 -224 2 -2 4 4 5 15 0 10 9 -12 20 -51 10
-38 17 -74 15 -80 -2 -5 -9 17 -16 49 -8 33 -16 54 -18 48 -4 -14 49 -206 94
-334 65 -186 75 -222 81 -284 l6 -61 40 -10 c22 -6 46 -9 54 -6 19 7 16 54 -7
109 -11 26 -19 49 -16 51 2 2 12 -16 21 -42 10 -25 20 -44 22 -42 2 2 -10 37
-26 78 -16 41 -33 88 -39 104 -6 17 -11 25 -11 18 -1 -6 4 -24 10 -40 5 -15 6
-23 1 -18 -10 10 -43 116 -41 132 0 4 7 -8 15 -27 19 -48 16 -32 -41 193 -27
111 -52 191 -55 182 -3 -10 -30 90 -59 221 -29 132 -55 248 -58 259 -3 11 -2
17 2 13 4 -3 13 -30 20 -60 14 -52 14 -52 8 -8 -3 25 -6 52 -7 60 -1 8 -8 18
-16 22 -8 5 3 6 25 3 22 -2 66 -7 98 -11 49 -5 69 -15 147 -71 50 -35 90 -66
90 -69 0 -3 -26 14 -57 37 -121 87 -124 88 -203 94 -91 6 -82 -1 12 -10 64 -6
74 -11 165 -77 53 -38 108 -77 122 -85 23 -14 23 -13 -4 11 l-30 28 31 -21
c17 -11 37 -28 45 -38 13 -16 12 -17 -3 -4 -10 7 -18 9 -18 3 0 -12 25 -34 32
-27 3 3 11 -3 19 -12 13 -16 12 -17 -3 -4 -26 20 -22 -2 4 -25 12 -10 18 -13
14 -6 -10 18 -1 15 15 -5 10 -11 10 -14 2 -9 -19 11 -16 -9 4 -25 15 -12 16
-12 8 1 -8 13 -7 13 8 1 18 -15 23 -26 7 -16 -5 3 -10 2 -10 -3 0 -12 25 -33
32 -27 3 3 11 -2 19 -12 9 -11 10 -14 2 -9 -19 11 -16 -9 4 -25 15 -12 16 -12
8 1 -8 13 -7 13 8 1 18 -15 23 -26 7 -16 -17 10 -11 -12 7 -26 15 -12 16 -12
8 1 -8 13 -7 13 8 1 18 -15 23 -26 7 -16 -17 10 -11 -12 7 -26 11 -10 14 -10
9 -1 -12 19 -1 14 20 -10 15 -19 16 -20 2 -9 -10 7 -18 9 -18 3 0 -13 25 -33
32 -26 3 3 9 0 14 -7 4 -8 3 -10 -4 -5 -7 4 -12 4 -12 -1 0 -4 41 -129 90
-279 72 -215 90 -284 92 -335 l2 -64 5 70 c6 64 7 59 14 -70 13 -255 15 -337
9 -330 -4 4 -10 79 -13 168 l-6 162 0 -185 0 -185 -77 -224 c-42 -123 -74
-231 -71 -240 3 -11 -33 -55 -113 -134 l-119 -118 -165 -26 -165 -26 -81 32
c-105 43 -213 114 -287 192 -33 35 -52 57 -42 50 30 -23 18 4 -15 35 -18 16
-24 19 -14 7 27 -32 15 -29 -15 4 -13 14 -18 23 -11 19 18 -11 15 9 -5 25 -15
12 -16 12 -8 -1 8 -13 7 -13 -8 -1 -18 15 -23 26 -7 16 6 -3 10 -2 10 3 0 13
-25 33 -32 26 -3 -3 -9 0 -14 7 -4 8 -3 10 4 5 7 -4 12 -3 12 2 0 13 -25 33
-32 26 -3 -3 -9 0 -14 7 -4 8 -3 10 4 5 18 -11 14 10 -5 25 -15 12 -16 12 -8
-1 8 -13 7 -13 -8 -1 -19 15 -23 26 -6 15 7 -4 10 -1 7 7 -3 8 -10 14 -16 14
-5 0 -14 4 -19 9 -5 5 -3 6 5 2 18 -11 15 9 -5 25 -15 12 -16 12 -8 -1 8 -13
7 -13 -8 -1 -19 15 -23 26 -5 15 8 -5 9 -2 3 12 -24 59 -94 302 -110 384 -14
68 -20 88 -25 70 -8 -32 -22 49 -51 286 -17 138 -20 190 -12 215 9 30 10 26 7
-31 l-3 -65 8 55 c7 42 113 423 157 564 5 14 3 16 -7 11 -8 -5 -11 -4 -6 1 5
5 12 9 15 9 13 0 32 16 32 26 0 6 -6 7 -12 3 -9 -5 -8 -2 1 9 8 10 16 15 19
12 7 -7 32 15 32 27 0 6 -8 4 -17 -3 -15 -11 -14 -9 1 9 11 12 21 20 24 17 7
-6 32 15 32 27 0 5 -6 6 -12 3 -7 -4 4 9 24 29 21 20 43 36 50 36 7 0 -1 -9
-18 -19 -18 -11 -35 -24 -39 -30 -3 -6 9 -2 29 9 19 12 36 17 39 13 8 -14 40
-204 35 -209 -3 -3 -11 32 -18 76 -7 44 -15 79 -17 76 -3 -2 5 -62 16 -133 12
-70 30 -189 40 -263 12 -82 20 -119 21 -95 3 45 25 -91 34 -205 3 -42 -2 -24
-13 50 -11 63 -19 102 -20 85 0 -16 6 -70 13 -120 18 -116 146 -415 177 -415
11 0 19 6 19 13 0 9 3 8 9 -2 6 -9 14 2 26 39 14 41 15 57 6 77 -7 14 -16 21
-23 17 -7 -4 -8 -3 -4 4 4 6 -18 61 -48 121 -45 89 -57 124 -65 188 l-10 78 3
-75 c8 -167 -14 7 -44 350 -16 195 -32 368 -35 385 -3 17 -2 25 3 20 5 -6 20
-134 33 -285 13 -151 25 -267 27 -257 4 17 -33 468 -43 528 -3 22 1 29 26 39
16 7 28 14 26 16 -2 3 -21 -3 -43 -12 -48 -20 -38 -7 14 17 43 20 49 22 56 11z
m-1882 -238 c51 -19 121 -51 156 -70 34 -19 66 -33 71 -30 8 5 161 -100 161
-110 0 -3 -4 -3 -9 0 -10 6 -25 -43 -16 -52 3 -3 5 2 5 11 0 9 4 18 9 21 5 4
7 -3 4 -14 -3 -11 -9 -22 -13 -25 -15 -9 -175 77 -325 176 -85 56 -155 104
-155 108 0 7 11 21 16 21 1 0 44 -16 96 -36z m-96 -114 c24 -17 44 -33 44 -36
0 -3 -20 9 -44 25 -42 29 -76 33 -76 9 0 -6 6 -6 15 2 11 9 22 6 57 -18 24
-16 50 -29 58 -29 22 -1 256 -162 252 -175 -2 -6 3 -8 11 -5 7 3 24 -4 38 -14
13 -10 20 -19 14 -19 -14 0 -275 128 -275 135 0 3 14 -2 30 -10 23 -12 35 -13
48 -5 16 11 16 11 -1 6 -10 -3 -28 -1 -40 6 -12 6 -32 12 -45 14 -21 2 -122
61 -122 71 0 2 5 1 12 -3 7 -5 8 -3 4 5 -5 7 -14 10 -21 7 -7 -2 -21 4 -31 16
-18 19 -18 20 1 34 24 18 19 19 71 -16z m-301 -109 c-3 -36 -8 -77 -11 -89 -3
-17 -1 -22 8 -16 8 4 10 3 5 -2 -5 -5 -14 -9 -19 -9 -6 0 -13 -6 -16 -14 -3
-9 0 -11 9 -6 8 5 11 4 6 -1 -5 -5 -14 -9 -19 -9 -6 0 -13 -6 -16 -14 -3 -9 0
-11 9 -6 8 5 11 4 6 -1 -5 -5 -14 -9 -19 -9 -6 0 -13 -6 -16 -14 -3 -9 0 -11
9 -6 8 5 11 4 6 -1 -5 -5 -14 -9 -20 -9 -5 0 -12 -6 -15 -14 -3 -9 0 -11 8 -6
9 5 11 4 6 -4 -4 -6 -11 -9 -16 -6 -19 12 -19 -14 0 -38 19 -24 129 -91 137
-83 2 1 -24 17 -57 35 -104 56 -65 43 58 -18 65 -33 201 -96 301 -141 161 -71
304 -140 261 -126 -22 7 -469 209 -507 229 -18 9 -36 17 -40 17 -15 -1 90 -52
287 -140 271 -121 269 -120 262 -138 -4 -11 -1 -13 9 -7 8 5 11 5 6 -1 -5 -5
-14 -9 -19 -9 -6 0 -13 -6 -16 -14 -3 -9 0 -11 9 -6 8 5 11 4 6 -1 -5 -5 -14
-9 -19 -9 -6 0 -13 -6 -16 -14 -3 -9 0 -11 9 -6 8 5 11 4 6 -1 -5 -5 -14 -9
-19 -9 -6 0 -13 -6 -16 -14 -3 -8 0 -11 7 -7 19 12 12 0 -11 -20 -22 -19 -23
-19 -8 1 8 11 0 7 -18 -9 -36 -33 -44 -59 -9 -30 12 10 2 -3 -23 -29 -43 -45
-58 -58 -45 -37 12 20 -7 9 -52 -27 -32 -26 -59 -39 -92 -44 l-46 -6 41 -2
c33 -1 51 6 90 36 27 20 43 30 36 21 -7 -8 -29 -27 -50 -41 -33 -23 -53 -27
-187 -38 l-150 -12 -60 26 c-33 14 -59 30 -58 35 1 5 -20 21 -47 36 -28 15
-63 38 -79 52 -30 25 -47 32 -36 14 14 -22 -3 -7 -65 57 -36 37 -55 59 -42 49
37 -32 25 -2 -15 35 -21 18 -29 24 -19 12 29 -35 14 -27 -20 9 -16 18 -21 26
-11 19 28 -22 20 3 -10 30 -15 13 -21 16 -14 7 19 -25 8 -22 -15 4 -10 12 -13
18 -6 14 18 -11 15 9 -5 25 -11 10 -14 10 -9 2 12 -20 1 -15 -20 9 -15 19 -16
20 -1 9 28 -22 20 3 -10 30 -15 13 -21 16 -14 7 19 -25 8 -22 -15 4 -10 12
-13 18 -6 14 18 -11 15 9 -5 25 -11 10 -14 10 -9 2 11 -19 1 -16 -15 4 -12 14
-12 16 0 8 10 -6 13 -4 9 6 -3 8 -16 46 -28 86 -13 40 -27 70 -31 67 -4 -2
-10 -1 -13 4 -3 5 18 10 47 11 67 3 75 11 11 11 -27 0 -56 5 -64 11 -12 8 -11
9 5 5 11 -3 65 -8 120 -11 l100 -6 154 91 c85 49 155 89 157 87 2 -2 -65 -43
-149 -92 -132 -78 -160 -90 -212 -96 l-60 -6 54 -1 c51 -2 63 3 205 85 146 84
206 129 206 153 0 6 -5 8 -12 4 -7 -4 -8 -3 -4 5 4 6 11 9 16 6 12 -7 33 32
25 45 -4 6 -1 9 6 8 6 -2 14 3 17 11 3 9 0 11 -8 6 -8 -5 -11 -4 -7 2 3 5 13
10 22 10 14 0 15 -10 10 -66z m573 -208 c89 -47 161 -87 159 -89 -2 -2 -42 17
-90 42 -48 25 -87 43 -87 40 0 -3 36 -24 80 -46 44 -22 80 -44 80 -49 0 -4
-13 -59 -30 -121 -16 -62 -26 -109 -21 -104 5 5 19 51 31 102 12 51 24 91 27
89 4 -5 -32 -158 -44 -187 -3 -8 -6 -18 -5 -21 1 -4 -27 7 -61 23 -34 17 -168
80 -297 140 -129 60 -239 113 -245 119 -9 9 429 -192 524 -240 23 -12 45 -20
47 -18 4 4 -163 84 -458 221 -90 41 -99 48 -120 90 -15 32 -25 42 -31 33 -6
-9 -7 -8 -4 3 2 8 10 15 17 15 7 0 15 6 18 14 3 9 0 11 -8 6 -9 -5 -11 -4 -6
4 4 6 11 9 16 6 4 -3 18 10 29 29 24 38 26 50 9 40 -8 -4 -10 -3 -5 2 5 5 14
9 20 9 5 0 12 6 15 14 3 9 0 11 -9 6 -8 -5 -11 -4 -6 1 9 9 13 10 45 13 14 1
15 3 2 10 -8 6 -18 7 -24 4 -5 -3 -6 -1 -2 5 7 12 128 -45 434 -205z m690 -15
c-24 -24 -30 -31 -13 -15 17 15 34 27 38 27 4 0 21 -25 38 -55 17 -30 35 -52
40 -49 14 8 10 -3 -7 -20 -8 -9 -29 -16 -46 -16 -17 0 -29 -3 -25 -6 12 -12
98 6 91 19 -5 9 -3 8 6 0 22 -21 3 -27 -73 -27 -46 1 -85 7 -107 18 -34 17
-35 17 -5 11 24 -4 27 -3 12 5 -13 9 -15 15 -7 30 13 25 13 33 -2 25 -7 -4 10
16 39 44 28 28 55 51 58 51 4 0 -13 -19 -37 -42z"/>
<path d="M5928 5248 c-40 -9 -67 -27 -175 -124 -109 -97 -128 -118 -127 -142
3 -45 4 -48 15 -29 8 14 14 16 25 6 7 -6 12 -15 9 -19 -8 -14 23 -32 44 -25
11 3 52 41 92 83 39 42 81 80 93 84 19 5 19 6 2 7 -11 1 -34 -11 -50 -26 l-31
-28 30 32 c27 27 46 34 175 63 97 21 202 36 317 44 111 8 179 18 190 26 17 13
17 13 0 -5 -13 -15 -37 -21 -105 -26 l-87 -7 87 2 c77 1 89 4 112 25 25 24 36
48 16 36 -5 -3 -10 -2 -10 3 0 5 -75 15 -168 22 -223 16 -465 -6 -517 -48
l-20 -16 20 21 c13 15 44 27 95 36 41 9 62 15 45 15 -16 0 -51 -5 -77 -10z"/>
<path d="M0 3463 c1 -16 382 -187 644 -289 104 -41 193 -74 198 -74 4 0 8 6 8
13 0 6 6 24 14 38 l13 25 -84 29 c-45 15 -83 32 -83 36 0 5 -7 5 -17 2 -12 -5
-14 -3 -8 7 6 10 4 12 -8 7 -10 -4 -153 40 -340 103 -177 60 -325 110 -329
110 -5 0 -8 -3 -8 -7z"/>
<path d="M532 3363 c-6 -18 -6 -31 -1 -27 5 3 9 11 9 19 0 8 4 17 10 20 6 4 6
-3 0 -21 -6 -15 -9 -28 -8 -29 2 -1 29 -12 60 -24 34 -14 55 -28 51 -34 -3 -6
-1 -7 5 -3 7 4 101 -29 209 -72 328 -132 523 -205 530 -198 8 8 60 -20 -402
209 -267 132 -409 197 -426 195 -21 -2 -29 -10 -37 -35z"/>
<path d="M3230 2309 c0 -5 7 -9 15 -9 9 0 32 -11 53 -24 57 -36 172 -92 259
-127 143 -58 407 -149 412 -142 3 3 0 8 -7 10 -6 3 -9 10 -6 15 4 7 2 8 -4 4
-10 -6 -232 98 -232 109 0 3 50 -20 110 -50 61 -30 110 -53 110 -50 0 9 -217
114 -223 108 -3 -3 -81 34 -173 81 l-167 87 -73 -2 c-41 -1 -74 -6 -74 -10z"/>
<path d="M3205 1681 c-3 -6 1 -11 10 -11 10 0 13 -5 9 -12 -4 -7 -3 -8 4 -4
16 9 103 -30 100 -45 -2 -6 4 -14 12 -16 13 -4 13 -3 0 7 -13 9 -12 10 5 7 11
-2 19 -9 17 -16 -1 -7 2 -10 8 -6 6 4 71 -21 146 -55 134 -61 510 -210 530
-210 5 0 15 12 21 28 l12 27 -4 -30 -5 -30 12 33 c6 18 16 31 22 28 86 -36
380 -146 382 -143 4 4 -395 159 -509 198 -37 12 -64 26 -60 30 5 4 114 -34
243 -85 129 -51 279 -110 333 -131 54 -20 96 -39 94 -41 -2 -2 -20 3 -40 11
-52 22 -60 17 -9 -5 39 -18 77 -18 70 0 -7 16 -796 410 -823 410 -3 0 -12 -15
-20 -32 l-14 -33 5 30 c4 28 3 27 -12 -7 -9 -21 -20 -38 -24 -38 -4 0 -74 23
-155 50 -81 28 -149 49 -152 47 -2 -2 87 -35 197 -72 111 -37 203 -65 206 -63
2 3 -17 12 -42 20 -26 8 -43 17 -38 20 14 9 127 -46 117 -56 -5 -5 -1 -7 10
-3 21 8 49 -2 41 -14 -3 -5 -10 -9 -15 -9 -6 0 -7 5 -3 12 5 8 2 9 -9 5 -13
-5 -512 156 -651 209 -7 3 -17 1 -21 -5z"/>
<path d="M6449 529 c-13 -7 13 -28 95 -77 71 -43 284 -137 292 -129 2 2 -17
12 -43 22 -72 27 -245 110 -268 129 -11 9 14 -2 55 -23 125 -67 584 -241 597
-227 8 7 16 2 -91 54 -48 24 -86 45 -84 47 2 3 38 -13 79 -35 41 -22 79 -39
84 -39 6 0 -28 19 -74 44 -47 24 -88 42 -93 39 -5 -3 -100 42 -212 100 -201
104 -206 106 -266 104 -34 -2 -66 -6 -71 -9z"/>
</g>
</svg>
