<?xml version="1.0" encoding="iso-8859-1"?>
<!-- Generator: Adobe Illustrator 19.0.0, SVG Export Plug-In . SVG Version: 6.00 Build 0)  -->
<svg version="1.1" id="Capa_1" xmlns="http://www.w3.org/2000/svg" xmlns:xlink="http://www.w3.org/1999/xlink" x="0px" y="0px"
	 viewBox="0 0 511.999 511.999" style="enable-background:new 0 0 511.999 511.999;" xml:space="preserve">
<g>
	<g>
		<path d="M507.821,286.175c-29.106-44.321-36.968-94.407-7.911-138.86c8.723-13.343-1.29-30.961-17.165-30.42
			c-15.242,0.502-34.162-0.045-56.23-1.62c-4.123-0.299-7.718,2.814-8.013,6.944c-0.295,4.13,2.814,7.717,6.944,8.012
			c58.938,4.207,59.257-0.949,62.071,4.059c2.638,4.683-3.111,5.857-11.667,26.502c-18.234,0.938-81.812,6.16-142.913,34.478
			c-14.762,6.84-13.732,28.188,1.629,33.527c56.882,18.535,68.093,26.877,92.466,26.877c17.248,0,22.6-3.952,46.099-7.769
			c2.236,7.274,4.896,14.099,7.745,20.374c-30.666,11.359-69.156,6.926-120.237-13.719c-3.842-1.556-8.21,0.303-9.76,4.141
			c-1.552,3.84,0.303,8.209,4.141,9.76c55.601,22.475,98.012,26.769,132.632,13.301c2.179,3.937,4.902,8.48,7.635,12.643
			c2.748,4.183,2.078,9.51-1.054,12.914c-1.949,2.117-0.386,0.59-39.825,23.47c-30.126,17.333-66.338,17.241-95.783,1.54
			c-55.17-28.716-56.46-31.773-67.191-33.531c10.035-14.378-0.372-34.419-18.22-34.114l-43.763,0.745
			c-0.014-0.595-0.128-1.963-0.348-3.031c-2.291-11.16-12.968-12.872-12.86-12.813c-1.798-0.367-3.749-0.734-5.557-1.047
			l35.528-17.856c22.713,5.222,48.684,12.887,76.581,24.137c3.839,1.545,8.208-0.31,9.757-4.149c1.548-3.84-0.31-8.208-4.149-9.756
			c-56.675-22.854-105.125-31.396-135.93-34.537c50.53-17.992,105.081-29.195,158.988-35.564
			c16.952-2.003,17.429-26.456,0.565-29.095c-80.357-12.577-166.834-9.347-244.499,14.818
			c30.491-21.984,65.627-34.485,102.671-39.921c64.129-9.415,106.088,2.879,180.159,10.519c4.132,0.427,7.802-2.57,8.226-6.689
			c0.426-4.118-2.569-7.802-6.688-8.227c-73.303-7.562-117.286-20.212-183.875-10.44C101.323,117.435,25.71,186.106,0.569,311.27
			c-1.527,7.616,0.015,15.524,4.673,22.134c0.849,1.203,8.762,8.97,15.006,10.89c3.565,1.102,38.298,5.949,38.934,5.949
			c3.662,0,6.865-2.685,7.409-6.416c0.598-4.097-2.239-7.903-6.336-8.502c-32.592-5.337-35.498-3.667-40.588-8.158
			c27.697-46.631,89.151-85.686,139.277-107.547c5.74-0.068,29.143,0.121,63.511,6.22l-39.609,19.908
			c-44.38-1.221-82.276,13.11-112.058,38.298c-10.87,9.187-5.55,27.033,8.724,28.67c48.789,5.596,99.489-4.177,140.888-32.135
			c67.903-1.155,50.199-0.904,53.207-0.904c6.016,0,9.023,7.369,4.654,11.587l-13.126,12.668l-38.807,22.731
			c-76.143,44.603-136.724-1.49-139.87,20.065c-0.598,4.097,2.239,7.903,6.336,8.502c41.884,6.045,66.505,11.919,106.906-0.583
			c85.478,48.196,89.226,55.493,109.655,58.472c19.71,2.878,40.223-3.744,54.542-18.335c10.891,1.44,15.97,2.766,24.674,2.766
			c29.481,0,56.661-16.651,69.89-43.795l5.417-11.114c32.685-19.999,43.703-20.912,47.43-36.553
			C512.931,299.279,511.66,292.022,507.821,286.175z M402.453,236.516l-62.963-21.885c-2.651-0.922-2.825-4.563-0.247-5.759
			c21.267-9.856,43.084-16.801,63.04-21.694c-27.917,26.071-11.433,48.944,66.065,40.249c0.28,1.772,0.681,4.016,1.058,5.889
			C444.978,237.413,429.117,245.782,402.453,236.516z M466.827,212.51c-26.629,2.997-47.348,2.275-58.787-2.1
			c-2.312-0.885-3.085-1.657-3.271-1.88c0.06-0.676,1.013-5.779,15.301-16.731c7.199-5.518,14.491-9.978,17.354-11.676
			c13.941-2.207,25.498-3.354,33.229-3.941C467.55,187.921,466.269,200.047,466.827,212.51z M203.235,152.416
			c0.608,0.416,1.206,0.885,1.62,1.305c-0.96,0.981-3.607,3.063-10.396,5.667c-3.327,1.276-8.013,2.742-13.438,4.439
			c-14.458,4.521-35.706,11.172-58.779,22.875c0.781-6.646-1.009-12.643-4.719-17.539
			C146.755,160.493,175.725,155.265,203.235,152.416z M77.32,183.332c7.919-3.264,16.319-6.392,23.749-8.928
			c10.707,6.227,6.316,15.927-1.642,25.355c-31.675,20.464-56.7,46.909-75.365,79.701C35.043,243.939,52.09,210.636,77.32,183.332z
			 M45.173,273.784c68.152-102.566,173.98-86.759,175.055-119.617c0.037-1.13-0.07-2.198-0.283-3.209
			c42.987-3.075,86.912-0.961,127.532,5.226C241.817,168.922,123.074,201.906,45.173,273.784z M84.348,298.149
			c-3.14-0.309-3.94-0.176-4.277-1.294c-0.31-1.024,0.021-1.155,4.219-4.473c19.082-15.098,40.739-24.608,63.903-28.944
			c-10.671,8.13-21.647,19.581-29.834,35.363C106.679,299.494,94.95,299.202,84.348,298.149z M213.777,266.959
			c-25.709,17.828-52.796,26.322-76.862,29.929c17.542-26.055,43.285-34.558,48.361-36.019c9.412,0.4,18.819,1.54,27.981,3.407
			C214.566,264.544,214.902,266.18,213.777,266.959z M283.257,313.344c4.379-0.362,8.852,0.509,12.813,2.621l50.906,27.144
			l-10.223,17.589c-5.85,10.058-18.73,13.478-28.797,7.625l-61.779-35.911C272.075,317.964,274.504,314.068,283.257,313.344z
			 M355.423,381.834c-11.103,12.965-27.964,18.775-43.9,16.445c-15.752-2.296-17.882-7.545-93.676-50.432
			c4.588-2.044,9.377-4.465,13.44-6.745l69.134,40.186c17.229,10.009,39.274,4.181,49.296-13.053l10.715-18.434
			c3.946,1.692,7.954,3.156,12.01,4.382C359.249,377.233,357.978,378.847,355.423,381.834z M379.338,381.879l-5.21-0.76
			l13.629-23.445c18.065,2.822,36.581,1.232,54.067-4.77C428.707,374.024,404.369,385.541,379.338,381.879z"/>
	</g>
</g>
<g>
</g>
<g>
</g>
<g>
</g>
<g>
</g>
<g>
</g>
<g>
</g>
<g>
</g>
<g>
</g>
<g>
</g>
<g>
</g>
<g>
</g>
<g>
</g>
<g>
</g>
<g>
</g>
<g>
</g>
</svg>
