<?xml version="1.0" standalone="no"?>
<!DOCTYPE svg PUBLIC "-//W3C//DTD SVG 20010904//EN"
 "http://www.w3.org/TR/2001/REC-SVG-20010904/DTD/svg10.dtd">
<svg version="1.0" xmlns="http://www.w3.org/2000/svg"
 width="338.000000pt" height="338.000000pt" viewBox="0 0 338.000000 338.000000"
 preserveAspectRatio="xMidYMid meet">
<metadata>
Created by potrace 1.15, written by Peter Selinger 2001-2017
</metadata>
<g transform="translate(0.000000,338.000000) scale(0.100000,-0.100000)"
fill="#000000" stroke="none">
<path d="M723 3095 c-177 -48 -312 -183 -358 -360 -44 -169 11 -353 141 -475
139 -130 323 -170 500 -110 87 30 100 42 114 102 24 101 94 220 179 303 47 45
52 79 26 180 -70 266 -343 429 -602 360z"/>
<path d="M2412 3094 c-190 -51 -332 -206 -364 -398 l-11 -69 29 -21 c126 -90
214 -223 248 -375 8 -34 16 -64 18 -66 2 -1 26 -10 53 -18 172 -56 353 -14
489 113 99 94 155 223 156 360 0 157 -95 330 -228 414 -109 68 -268 93 -390
60z"/>
<path d="M1596 2584 c-173 -42 -315 -184 -360 -360 -79 -306 162 -614 479
-614 183 0 359 111 441 276 186 375 -152 797 -560 698z"/>
<path d="M555 2080 c-91 -10 -189 -47 -270 -101 -121 -81 -200 -185 -253 -331
-27 -73 -27 -75 -30 -395 l-3 -322 68 -20 c201 -59 430 -105 593 -117 l87 -7
6 139 c6 164 21 227 83 352 77 157 235 303 392 361 l62 23 -40 46 c-75 84
-122 187 -141 307 -6 33 -16 63 -22 67 -15 9 -449 8 -532 -2z"/>
<path d="M2317 1999 c-21 -112 -68 -214 -131 -285 l-46 -52 62 -23 c156 -58
316 -205 393 -363 61 -125 76 -187 82 -354 l6 -142 66 5 c242 22 468 73 594
137 l38 19 -3 317 c-3 314 -3 318 -30 390 -73 202 -218 345 -411 408 -78 25
-94 27 -342 32 l-260 4 -18 -93z"/>
<path d="M1347 1554 c-96 -23 -212 -90 -286 -164 -77 -77 -122 -149 -159 -252
l-27 -73 0 -324 0 -324 45 -13 c194 -59 418 -105 614 -125 148 -14 442 -7 585
16 126 20 322 75 392 110 l51 26 -4 317 c-4 299 -6 321 -27 382 -62 175 -168
298 -327 378 -114 58 -150 62 -490 61 -230 0 -324 -4 -367 -15z"/>
</g>
</svg>
