<svg xmlns="http://www.w3.org/2000/svg" xmlns:xlink="http://www.w3.org/1999/xlink" version="1.1" style="" xml:space="preserve" width="35" height="29"><rect id="backgroundrect" width="100%" height="100%" x="0" y="0" fill="none" stroke="none"/>
















<g class="currentLayer" style=""><title>Layer 1</title><g id="svg_1" class="">
	<g id="c55_speedometer">
		<path d="M28.955,10.215c-3.066-2.629-7.047-4.229-11.408-4.229C7.856,5.986,0,13.842,0,23.536c0,0.26,0.026,2.686,0.037,2.945    v2.628h34.988v-2.437l0.033-0.191c0.011-0.26,0.038-2.686,0.038-2.945C35.097,14.934,28.955,10.215,28.955,10.215z M4.269,26.482    c-0.014-0.16,0.006-2.49-0.005-2.65h3.6V22.67H4.517c0-0.014-0.253,0.002-0.253,0.002c0.142-3.014,1.29-6.02,3.458-8.391    l0.09-0.098l0.162,0.141l2.395,2.397l0.751-0.754l-2.544-2.542c2.304-2.105,5.225-3.313,8.344-3.453h0.18    c0,0,0.075-0.004,0.07,0.045v3.549h0.958V9.971c0.474,0.02,0.946,0.076,1.412,0.148c2.678,0.354,5.167,1.51,7.181,3.351    l-2.539,2.54l0.705,0.71l2.439-2.44l0.134-0.107l0.116,0.152c2.108,2.305,3.314,5.225,3.457,8.344h-3.596v1.162l3.612-0.004    c0,0,0.003,2.5-0.009,2.646L4.269,26.482z" id="svg_2"/>
	</g>
	<g id="Capa_1_13_">
	</g>
</g><g id="svg_3" class="">
</g><g id="svg_4" class="">
</g><g id="svg_5" class="">
</g><g id="svg_6" class="">
</g><g id="svg_7" class="">
</g><g id="svg_8" class="">
</g><g id="svg_9" class="">
</g><g id="svg_10" class="">
</g><g id="svg_11" class="">
</g><g id="svg_12" class="">
</g><g id="svg_13" class="">
</g><g id="svg_14" class="">
</g><g id="svg_15" class="">
</g><g id="svg_16" class="">
</g><g id="svg_17" class="">
</g><path fill="#b8b800" stroke="#b8b800" stroke-width="2" stroke-linejoin="round" stroke-dashoffset="" fill-rule="nonzero" marker-start="" marker-mid="" marker-end="" id="svg_19" d="M17.091177009288835,21.592485379347785 C16.653065087079447,20.824716509360094 14.970711791343504,20.44354344027887 11.654563436731117,20.36071591729818 L9.412172079558882,20.304708056017603 L9.412172079558882,19.632737740254964 L9.412172079558882,18.960773845125694 L11.10471829983161,18.960773845125694 C13.100028475790154,18.960773845125694 14.526747968653353,18.82281437043581 15.690867271370461,18.51730001814478 C16.37784159367862,18.337012348592637 16.606128567053688,18.22204583807755 16.916653716845932,17.89999835470008 L17.29824176160374,17.504243689167456 L18.39274112223707,18.60247850674571 L19.487240144942437,19.700719407029414 L18.38048751229685,20.80656030972769 L17.273731838298584,21.912407295131324 L17.0911766713608,21.592485379347785 L17.091177009288835,21.592485379347785 z" style="color: rgb(0, 0, 0);" class="selected" fill-opacity="1" stroke-opacity="1" transform="rotate(-137.96414184570312 14.449706077575682,19.708324432373043) "/></g></svg>