<svg xmlns="http://www.w3.org/2000/svg" xmlns:xlink="http://www.w3.org/1999/xlink" version="1.1" style="enable-background:new 0 0 35.096 35.096;" xml:space="preserve" width="35" height="29"><rect id="backgroundrect" width="100%" height="100%" x="0" y="0" fill="none" stroke="none"/>
















<g class="currentLayer" style=""><title>Layer 1</title><g id="svg_1" class="">
	<g id="c55_speedometer">
		<path d="M28.955,10.215c-3.066-2.629-7.047-4.229-11.408-4.229C7.856,5.986,0,13.842,0,23.536c0,0.26,0.026,2.686,0.037,2.945    v2.628h34.988v-2.437l0.033-0.191c0.011-0.26,0.038-2.686,0.038-2.945C35.097,14.934,28.955,10.215,28.955,10.215z M4.269,26.482    c-0.014-0.16,0.006-2.49-0.005-2.65h3.6V22.67H4.517c0-0.014-0.253,0.002-0.253,0.002c0.142-3.014,1.29-6.02,3.458-8.391    l0.09-0.098l0.162,0.141l2.395,2.397l0.751-0.754l-2.544-2.542c2.304-2.105,5.225-3.313,8.344-3.453h0.18    c0,0,0.075-0.004,0.07,0.045v3.549h0.958V9.971c0.474,0.02,0.946,0.076,1.412,0.148c2.678,0.354,5.167,1.51,7.181,3.351    l-2.539,2.54l0.705,0.71l2.439-2.44l0.134-0.107l0.116,0.152c2.108,2.305,3.314,5.225,3.457,8.344h-3.596v1.162l3.612-0.004    c0,0,0.003,2.5-0.009,2.646L4.269,26.482z" id="svg_2"/>
	</g>
	<g id="Capa_1_13_">
	</g>
</g><g id="svg_3" class="">
</g><g id="svg_4" class="">
</g><g id="svg_5" class="">
</g><g id="svg_6" class="">
</g><g id="svg_7" class="">
</g><g id="svg_8" class="">
</g><g id="svg_9" class="">
</g><g id="svg_10" class="">
</g><g id="svg_11" class="">
</g><g id="svg_12" class="">
</g><g id="svg_13" class="">
</g><g id="svg_14" class="">
</g><g id="svg_15" class="">
</g><g id="svg_16" class="">
</g><g id="svg_17" class="">
</g><path fill="#b80404" stroke="#b80404" stroke-width="2" stroke-linejoin="round" stroke-dashoffset="" fill-rule="nonzero" marker-start="" marker-mid="" marker-end="" id="svg_19" d="M24.3564830424829,25.021056894133075 C23.918371120273513,24.253288024145384 22.23601782453757,23.87211495506416 18.91986946992518,23.78928743208347 L16.677478112752947,23.733279570802893 L16.677478112752947,23.061309255040253 L16.677478112752947,22.389345359910983 L18.370024333025675,22.389345359910983 C20.36533450898422,22.389345359910983 21.79205400184742,22.2513858852211 22.956173304564526,21.94587153293007 C23.643147626872686,21.765583863377927 23.871434600247753,21.650617352862838 24.181959750039997,21.32856986948537 L24.563547794797806,20.932815203952746 L25.658047155431134,22.031050021531 L26.7525461781365,23.129290921814704 L25.645793545490914,24.23513182451298 L24.53903787149265,25.340978809916614 L24.356482704554864,25.021056894133075 L24.3564830424829,25.021056894133075 z" style="color: rgb(0, 0, 0);" class="selected" fill-opacity="1" stroke-opacity="1"/></g></svg>