<svg xmlns="http://www.w3.org/2000/svg" xmlns:xlink="http://www.w3.org/1999/xlink" version="1.1" style="" xml:space="preserve" width="35" height="29"><rect id="backgroundrect" width="100%" height="100%" x="0" y="0" fill="none" stroke="none"/>
















<g class="currentLayer" style=""><title>Layer 1</title><g id="svg_1" class="">
	<g id="c55_speedometer">
		<path d="M28.955,10.215c-3.066-2.629-7.047-4.229-11.408-4.229C7.856,5.986,0,13.842,0,23.536c0,0.26,0.026,2.686,0.037,2.945    v2.628h34.988v-2.437l0.033-0.191c0.011-0.26,0.038-2.686,0.038-2.945C35.097,14.934,28.955,10.215,28.955,10.215z M4.269,26.482    c-0.014-0.16,0.006-2.49-0.005-2.65h3.6V22.67H4.517c0-0.014-0.253,0.002-0.253,0.002c0.142-3.014,1.29-6.02,3.458-8.391    l0.09-0.098l0.162,0.141l2.395,2.397l0.751-0.754l-2.544-2.542c2.304-2.105,5.225-3.313,8.344-3.453h0.18    c0,0,0.075-0.004,0.07,0.045v3.549h0.958V9.971c0.474,0.02,0.946,0.076,1.412,0.148c2.678,0.354,5.167,1.51,7.181,3.351    l-2.539,2.54l0.705,0.71l2.439-2.44l0.134-0.107l0.116,0.152c2.108,2.305,3.314,5.225,3.457,8.344h-3.596v1.162l3.612-0.004    c0,0,0.003,2.5-0.009,2.646L4.269,26.482z" id="svg_2"/>
	</g>
	<g id="Capa_1_13_">
	</g>
</g><g id="svg_3" class="">
</g><g id="svg_4" class="">
</g><g id="svg_5" class="">
</g><g id="svg_6" class="">
</g><g id="svg_7" class="">
</g><g id="svg_8" class="">
</g><g id="svg_9" class="">
</g><g id="svg_10" class="">
</g><g id="svg_11" class="">
</g><g id="svg_12" class="">
</g><g id="svg_13" class="">
</g><g id="svg_14" class="">
</g><g id="svg_15" class="">
</g><g id="svg_16" class="">
</g><g id="svg_17" class="">
</g><path fill="#00b800" stroke="#00b800" stroke-width="2" stroke-linejoin="round" stroke-dashoffset="" fill-rule="nonzero" marker-start="" marker-mid="" marker-end="" id="svg_19" d="M15.621789239589738,25.02105684197901 C15.18367731738035,24.25328797199132 13.501324021644407,23.872114902910095 10.18517566703202,23.789287379929405 L7.9427843098597855,23.73327951864883 L7.9427843098597855,23.06130920288619 L7.9427843098597855,22.38934530775692 L9.635330530132514,22.38934530775692 C11.630640706091057,22.38934530775692 13.057360198954257,22.251385833067037 14.221479501671364,21.945871480776006 C14.908453823979524,21.765583811223863 15.13674079735459,21.650617300708774 15.447265947146835,21.328569817331307 L15.828853991904644,20.932815151798682 L16.923353352537973,22.031049969376937 L18.01785237524334,23.12929086966064 L16.911099742597752,24.235131772358915 L15.804344068599487,25.34097875776255 L15.621788901661702,25.02105684197901 L15.621789239589738,25.02105684197901 z" style="color: rgb(0, 0, 0);" class="selected" fill-opacity="1" stroke-opacity="1" transform="rotate(179.16761779785156 12.98031806945801,23.13689613342285) "/></g></svg>